<mxfile host="drawio-plugin" modified="2022-10-26T06:44:19.791Z" agent="5.0 (Windows NT 6.2; Win64; x64) AppleWebKit/537.36 (KHTML, like Gecko) Chrome/89.0.4389.114 Safari/537.36" etag="qUo0uyUWwTK-MXZHr2uj" version="15.5.4" type="embed"><diagram id="C5RBs43oDa-KdzZeNtuy" name="Page-1"><mxGraphModel dx="2730" dy="1635" grid="0" gridSize="10" guides="1" tooltips="1" connect="1" arrows="1" fold="1" page="0" pageScale="1" pageWidth="2336" pageHeight="1654" background="none" math="0" shadow="0"><root><mxCell id="WIyWlLk6GJQsqaUBKTNV-0"/><mxCell id="WIyWlLk6GJQsqaUBKTNV-1" parent="WIyWlLk6GJQsqaUBKTNV-0"/><mxCell id="O_oIPhdlYZOM3jG4M40S-64" style="edgeStyle=orthogonalEdgeStyle;rounded=0;orthogonalLoop=1;jettySize=auto;html=1;endArrow=diamondThin;endFill=1;startSize=14;endSize=14;" parent="WIyWlLk6GJQsqaUBKTNV-1" source="zkfFHV4jXpPFQw0GAbJ--6" target="O_oIPhdlYZOM3jG4M40S-40" edge="1"><mxGeometry relative="1" as="geometry"/></mxCell><mxCell id="O_oIPhdlYZOM3jG4M40S-66" style="edgeStyle=orthogonalEdgeStyle;rounded=0;orthogonalLoop=1;jettySize=auto;html=1;endArrow=openThin;endFill=0;startSize=14;endSize=14;startArrow=openThin;startFill=0;dashed=1;" parent="WIyWlLk6GJQsqaUBKTNV-1" source="zkfFHV4jXpPFQw0GAbJ--6" target="O_oIPhdlYZOM3jG4M40S-1" edge="1"><mxGeometry relative="1" as="geometry"/></mxCell><mxCell id="zkfFHV4jXpPFQw0GAbJ--6" value="GameMediator" style="swimlane;fontStyle=0;align=center;verticalAlign=top;childLayout=stackLayout;horizontal=1;startSize=26;horizontalStack=0;resizeParent=1;resizeLast=0;collapsible=1;marginBottom=0;rounded=0;shadow=0;strokeWidth=1;" parent="WIyWlLk6GJQsqaUBKTNV-1" vertex="1"><mxGeometry x="738" y="38" width="278" height="398" as="geometry"><mxRectangle x="281" width="160" height="26" as="alternateBounds"/></mxGeometry></mxCell><mxCell id="zkfFHV4jXpPFQw0GAbJ--7" value="# view_controller_: view::ViewController *" style="text;align=left;verticalAlign=top;spacingLeft=4;spacingRight=4;overflow=hidden;rotatable=0;points=[[0,0.5],[1,0.5]];portConstraint=eastwest;" parent="zkfFHV4jXpPFQw0GAbJ--6" vertex="1"><mxGeometry y="26" width="278" height="26" as="geometry"/></mxCell><mxCell id="zkfFHV4jXpPFQw0GAbJ--8" value="# kernel_controller_: kernel::KernelController *" style="text;align=left;verticalAlign=top;spacingLeft=4;spacingRight=4;overflow=hidden;rotatable=0;points=[[0,0.5],[1,0.5]];portConstraint=eastwest;rounded=0;shadow=0;html=0;" parent="zkfFHV4jXpPFQw0GAbJ--6" vertex="1"><mxGeometry y="52" width="278" height="26" as="geometry"/></mxCell><mxCell id="X3iBoTwYunZCs_lj_990-169" value="# events_controller_: events::EventsController *" style="text;align=left;verticalAlign=top;spacingLeft=4;spacingRight=4;overflow=hidden;rotatable=0;points=[[0,0.5],[1,0.5]];portConstraint=eastwest;rounded=0;shadow=0;html=0;" parent="zkfFHV4jXpPFQw0GAbJ--6" vertex="1"><mxGeometry y="78" width="278" height="26" as="geometry"/></mxCell><mxCell id="O_oIPhdlYZOM3jG4M40S-67" value="# map_maker_: mapmaker::MapMaker *" style="text;align=left;verticalAlign=top;spacingLeft=4;spacingRight=4;overflow=hidden;rotatable=0;points=[[0,0.5],[1,0.5]];portConstraint=eastwest;rounded=0;shadow=0;html=0;" parent="zkfFHV4jXpPFQw0GAbJ--6" vertex="1"><mxGeometry y="104" width="278" height="26" as="geometry"/></mxCell><mxCell id="X3iBoTwYunZCs_lj_990-0" value="# game_state_controller_: GameStateController" style="text;align=left;verticalAlign=top;spacingLeft=4;spacingRight=4;overflow=hidden;rotatable=0;points=[[0,0.5],[1,0.5]];portConstraint=eastwest;rounded=0;shadow=0;html=0;" parent="zkfFHV4jXpPFQw0GAbJ--6" vertex="1"><mxGeometry y="130" width="278" height="26" as="geometry"/></mxCell><mxCell id="zkfFHV4jXpPFQw0GAbJ--9" value="" style="line;html=1;strokeWidth=1;align=left;verticalAlign=middle;spacingTop=-1;spacingLeft=3;spacingRight=3;rotatable=0;labelPosition=right;points=[];portConstraint=eastwest;" parent="zkfFHV4jXpPFQw0GAbJ--6" vertex="1"><mxGeometry y="156" width="278" height="8" as="geometry"/></mxCell><mxCell id="zkfFHV4jXpPFQw0GAbJ--11" value="+ start(): void" style="text;align=left;verticalAlign=top;spacingLeft=4;spacingRight=4;overflow=hidden;rotatable=0;points=[[0,0.5],[1,0.5]];portConstraint=eastwest;" parent="zkfFHV4jXpPFQw0GAbJ--6" vertex="1"><mxGeometry y="164" width="278" height="26" as="geometry"/></mxCell><mxCell id="X3iBoTwYunZCs_lj_990-18" value="+ readField(): const engine::Field*" style="text;align=left;verticalAlign=top;spacingLeft=4;spacingRight=4;overflow=hidden;rotatable=0;points=[[0,0.5],[1,0.5]];portConstraint=eastwest;" parent="zkfFHV4jXpPFQw0GAbJ--6" vertex="1"><mxGeometry y="190" width="278" height="26" as="geometry"/></mxCell><mxCell id="X3iBoTwYunZCs_lj_990-167" value="+ movePlayer(kernel::Creature::Directions): void" style="text;align=left;verticalAlign=top;spacingLeft=4;spacingRight=4;overflow=hidden;rotatable=0;points=[[0,0.5],[1,0.5]];portConstraint=eastwest;" parent="zkfFHV4jXpPFQw0GAbJ--6" vertex="1"><mxGeometry y="216" width="278" height="26" as="geometry"/></mxCell><mxCell id="X3iBoTwYunZCs_lj_990-168" value="+ getPlayer(): kernel::Player *" style="text;align=left;verticalAlign=top;spacingLeft=4;spacingRight=4;overflow=hidden;rotatable=0;points=[[0,0.5],[1,0.5]];portConstraint=eastwest;" parent="zkfFHV4jXpPFQw0GAbJ--6" vertex="1"><mxGeometry y="242" width="278" height="26" as="geometry"/></mxCell><mxCell id="X3iBoTwYunZCs_lj_990-22" value="+ getCreatures(): std::vector&lt;kernel::Creature*&gt; " style="text;align=left;verticalAlign=top;spacingLeft=4;spacingRight=4;overflow=hidden;rotatable=0;points=[[0,0.5],[1,0.5]];portConstraint=eastwest;" parent="zkfFHV4jXpPFQw0GAbJ--6" vertex="1"><mxGeometry y="268" width="278" height="26" as="geometry"/></mxCell><mxCell id="O_oIPhdlYZOM3jG4M40S-68" value="+ getKernel(): kernel::KernelController *" style="text;align=left;verticalAlign=top;spacingLeft=4;spacingRight=4;overflow=hidden;rotatable=0;points=[[0,0.5],[1,0.5]];portConstraint=eastwest;" parent="zkfFHV4jXpPFQw0GAbJ--6" vertex="1"><mxGeometry y="294" width="278" height="26" as="geometry"/></mxCell><mxCell id="O_oIPhdlYZOM3jG4M40S-69" value="+ getState(): GameStateController::State" style="text;align=left;verticalAlign=top;spacingLeft=4;spacingRight=4;overflow=hidden;rotatable=0;points=[[0,0.5],[1,0.5]];portConstraint=eastwest;" parent="zkfFHV4jXpPFQw0GAbJ--6" vertex="1"><mxGeometry y="320" width="278" height="26" as="geometry"/></mxCell><mxCell id="O_oIPhdlYZOM3jG4M40S-71" value="+ setState(GameStateController::State): void" style="text;align=left;verticalAlign=top;spacingLeft=4;spacingRight=4;overflow=hidden;rotatable=0;points=[[0,0.5],[1,0.5]];portConstraint=eastwest;" parent="zkfFHV4jXpPFQw0GAbJ--6" vertex="1"><mxGeometry y="346" width="278" height="26" as="geometry"/></mxCell><mxCell id="O_oIPhdlYZOM3jG4M40S-70" value="+ getStateController(): GameStateController&amp;" style="text;align=left;verticalAlign=top;spacingLeft=4;spacingRight=4;overflow=hidden;rotatable=0;points=[[0,0.5],[1,0.5]];portConstraint=eastwest;" parent="zkfFHV4jXpPFQw0GAbJ--6" vertex="1"><mxGeometry y="372" width="278" height="26" as="geometry"/></mxCell><mxCell id="O_oIPhdlYZOM3jG4M40S-29" value="" style="edgeStyle=orthogonalEdgeStyle;rounded=0;orthogonalLoop=1;jettySize=auto;html=1;endArrow=diamondThin;endFill=1;endSize=14;" parent="WIyWlLk6GJQsqaUBKTNV-1" source="X3iBoTwYunZCs_lj_990-12" target="O_oIPhdlYZOM3jG4M40S-15" edge="1"><mxGeometry relative="1" as="geometry"/></mxCell><mxCell id="O_oIPhdlYZOM3jG4M40S-33" value="" style="edgeStyle=orthogonalEdgeStyle;rounded=0;orthogonalLoop=1;jettySize=auto;html=1;dashed=1;endArrow=openThin;endFill=0;startSize=14;endSize=14;" parent="WIyWlLk6GJQsqaUBKTNV-1" source="X3iBoTwYunZCs_lj_990-12" target="X3iBoTwYunZCs_lj_990-77" edge="1"><mxGeometry relative="1" as="geometry"/></mxCell><mxCell id="X3iBoTwYunZCs_lj_990-12" value="kernel::CreatureManager" style="swimlane;fontStyle=0;align=center;verticalAlign=top;childLayout=stackLayout;horizontal=1;startSize=26;horizontalStack=0;resizeParent=1;resizeLast=0;collapsible=1;marginBottom=0;rounded=0;shadow=0;strokeWidth=1;" parent="WIyWlLk6GJQsqaUBKTNV-1" vertex="1"><mxGeometry x="1661" y="198" width="310" height="138" as="geometry"><mxRectangle x="281" width="160" height="26" as="alternateBounds"/></mxGeometry></mxCell><mxCell id="X3iBoTwYunZCs_lj_990-14" value="# creatures_: std::map&lt;Point, CreatureWrapper&gt;" style="text;align=left;verticalAlign=top;spacingLeft=4;spacingRight=4;overflow=hidden;rotatable=0;points=[[0,0.5],[1,0.5]];portConstraint=eastwest;rounded=0;shadow=0;html=0;" parent="X3iBoTwYunZCs_lj_990-12" vertex="1"><mxGeometry y="26" width="310" height="26" as="geometry"/></mxCell><mxCell id="X3iBoTwYunZCs_lj_990-17" value="" style="line;html=1;strokeWidth=1;align=left;verticalAlign=middle;spacingTop=-1;spacingLeft=3;spacingRight=3;rotatable=0;labelPosition=right;points=[];portConstraint=eastwest;" parent="X3iBoTwYunZCs_lj_990-12" vertex="1"><mxGeometry y="52" width="310" height="8" as="geometry"/></mxCell><mxCell id="X3iBoTwYunZCs_lj_990-153" value="+ addCreature(Point, Creature *): void" style="text;align=left;verticalAlign=top;spacingLeft=4;spacingRight=4;overflow=hidden;rotatable=0;points=[[0,0.5],[1,0.5]];portConstraint=eastwest;" parent="X3iBoTwYunZCs_lj_990-12" vertex="1"><mxGeometry y="60" width="310" height="26" as="geometry"/></mxCell><mxCell id="X3iBoTwYunZCs_lj_990-20" value="+ moveCreature(Point, Point, Directions): void" style="text;align=left;verticalAlign=top;spacingLeft=4;spacingRight=4;overflow=hidden;rotatable=0;points=[[0,0.5],[1,0.5]];portConstraint=eastwest;" parent="X3iBoTwYunZCs_lj_990-12" vertex="1"><mxGeometry y="86" width="310" height="26" as="geometry"/></mxCell><mxCell id="X3iBoTwYunZCs_lj_990-21" value="+ getCreature(Point): CreatureWrapper" style="text;align=left;verticalAlign=top;spacingLeft=4;spacingRight=4;overflow=hidden;rotatable=0;points=[[0,0.5],[1,0.5]];portConstraint=eastwest;" parent="X3iBoTwYunZCs_lj_990-12" vertex="1"><mxGeometry y="112" width="310" height="26" as="geometry"/></mxCell><mxCell id="O_oIPhdlYZOM3jG4M40S-38" style="edgeStyle=orthogonalEdgeStyle;rounded=0;orthogonalLoop=1;jettySize=auto;html=1;endArrow=diamondThin;endFill=1;startSize=14;endSize=14;" parent="WIyWlLk6GJQsqaUBKTNV-1" source="X3iBoTwYunZCs_lj_990-24" target="O_oIPhdlYZOM3jG4M40S-1" edge="1"><mxGeometry relative="1" as="geometry"/></mxCell><mxCell id="X3iBoTwYunZCs_lj_990-24" value="kernel::Field" style="swimlane;fontStyle=0;align=center;verticalAlign=top;childLayout=stackLayout;horizontal=1;startSize=26;horizontalStack=0;resizeParent=1;resizeLast=0;collapsible=1;marginBottom=0;rounded=0;shadow=0;strokeWidth=1;" parent="WIyWlLk6GJQsqaUBKTNV-1" vertex="1"><mxGeometry x="1240" y="564" width="310" height="268" as="geometry"><mxRectangle x="281" width="160" height="26" as="alternateBounds"/></mxGeometry></mxCell><mxCell id="X3iBoTwYunZCs_lj_990-25" value="# cells_: std::vector&lt;std::vector&lt;Cell*&gt;&gt; cells_" style="text;align=left;verticalAlign=top;spacingLeft=4;spacingRight=4;overflow=hidden;rotatable=0;points=[[0,0.5],[1,0.5]];portConstraint=eastwest;" parent="X3iBoTwYunZCs_lj_990-24" vertex="1"><mxGeometry y="26" width="310" height="26" as="geometry"/></mxCell><mxCell id="X3iBoTwYunZCs_lj_990-26" value="# width_: int" style="text;align=left;verticalAlign=top;spacingLeft=4;spacingRight=4;overflow=hidden;rotatable=0;points=[[0,0.5],[1,0.5]];portConstraint=eastwest;rounded=0;shadow=0;html=0;" parent="X3iBoTwYunZCs_lj_990-24" vertex="1"><mxGeometry y="52" width="310" height="26" as="geometry"/></mxCell><mxCell id="X3iBoTwYunZCs_lj_990-34" value="# height_: int" style="text;align=left;verticalAlign=top;spacingLeft=4;spacingRight=4;overflow=hidden;rotatable=0;points=[[0,0.5],[1,0.5]];portConstraint=eastwest;rounded=0;shadow=0;html=0;" parent="X3iBoTwYunZCs_lj_990-24" vertex="1"><mxGeometry y="78" width="310" height="26" as="geometry"/></mxCell><mxCell id="X3iBoTwYunZCs_lj_990-27" value="" style="line;html=1;strokeWidth=1;align=left;verticalAlign=middle;spacingTop=-1;spacingLeft=3;spacingRight=3;rotatable=0;labelPosition=right;points=[];portConstraint=eastwest;" parent="X3iBoTwYunZCs_lj_990-24" vertex="1"><mxGeometry y="104" width="310" height="8" as="geometry"/></mxCell><mxCell id="X3iBoTwYunZCs_lj_990-28" value="+ getCell(Point): Cell*" style="text;align=left;verticalAlign=top;spacingLeft=4;spacingRight=4;overflow=hidden;rotatable=0;points=[[0,0.5],[1,0.5]];portConstraint=eastwest;" parent="X3iBoTwYunZCs_lj_990-24" vertex="1"><mxGeometry y="112" width="310" height="26" as="geometry"/></mxCell><mxCell id="O_oIPhdlYZOM3jG4M40S-37" value="+ readCell(Point): const Cell*" style="text;align=left;verticalAlign=top;spacingLeft=4;spacingRight=4;overflow=hidden;rotatable=0;points=[[0,0.5],[1,0.5]];portConstraint=eastwest;" parent="X3iBoTwYunZCs_lj_990-24" vertex="1"><mxGeometry y="138" width="310" height="26" as="geometry"/></mxCell><mxCell id="X3iBoTwYunZCs_lj_990-29" value="+ getWidth(): int" style="text;align=left;verticalAlign=top;spacingLeft=4;spacingRight=4;overflow=hidden;rotatable=0;points=[[0,0.5],[1,0.5]];portConstraint=eastwest;" parent="X3iBoTwYunZCs_lj_990-24" vertex="1"><mxGeometry y="164" width="310" height="26" as="geometry"/></mxCell><mxCell id="X3iBoTwYunZCs_lj_990-30" value="+ getHeight(): int" style="text;align=left;verticalAlign=top;spacingLeft=4;spacingRight=4;overflow=hidden;rotatable=0;points=[[0,0.5],[1,0.5]];portConstraint=eastwest;" parent="X3iBoTwYunZCs_lj_990-24" vertex="1"><mxGeometry y="190" width="310" height="26" as="geometry"/></mxCell><mxCell id="X3iBoTwYunZCs_lj_990-31" value="+ getMoving(Point, Point): Point" style="text;align=left;verticalAlign=top;spacingLeft=4;spacingRight=4;overflow=hidden;rotatable=0;points=[[0,0.5],[1,0.5]];portConstraint=eastwest;" parent="X3iBoTwYunZCs_lj_990-24" vertex="1"><mxGeometry y="216" width="310" height="26" as="geometry"/></mxCell><mxCell id="O_oIPhdlYZOM3jG4M40S-36" value="+ getPreservedPoint(Point): Point" style="text;align=left;verticalAlign=top;spacingLeft=4;spacingRight=4;overflow=hidden;rotatable=0;points=[[0,0.5],[1,0.5]];portConstraint=eastwest;" parent="X3iBoTwYunZCs_lj_990-24" vertex="1"><mxGeometry y="242" width="310" height="26" as="geometry"/></mxCell><mxCell id="O_oIPhdlYZOM3jG4M40S-39" style="edgeStyle=orthogonalEdgeStyle;rounded=0;orthogonalLoop=1;jettySize=auto;html=1;endArrow=diamondThin;endFill=1;startSize=14;endSize=14;" parent="WIyWlLk6GJQsqaUBKTNV-1" source="X3iBoTwYunZCs_lj_990-38" target="X3iBoTwYunZCs_lj_990-24" edge="1"><mxGeometry relative="1" as="geometry"/></mxCell><mxCell id="O_oIPhdlYZOM3jG4M40S-75" style="edgeStyle=orthogonalEdgeStyle;rounded=0;orthogonalLoop=1;jettySize=auto;html=1;startArrow=none;startFill=0;endArrow=openThin;endFill=0;startSize=14;endSize=14;dashed=1;" parent="WIyWlLk6GJQsqaUBKTNV-1" source="X3iBoTwYunZCs_lj_990-38" target="X3iBoTwYunZCs_lj_990-55" edge="1"><mxGeometry relative="1" as="geometry"/></mxCell><mxCell id="X3iBoTwYunZCs_lj_990-38" value="kernel::Cell" style="swimlane;fontStyle=0;align=center;verticalAlign=top;childLayout=stackLayout;horizontal=1;startSize=26;horizontalStack=0;resizeParent=1;resizeLast=0;collapsible=1;marginBottom=0;rounded=0;shadow=0;strokeWidth=1;" parent="WIyWlLk6GJQsqaUBKTNV-1" vertex="1"><mxGeometry x="1240" y="965" width="310" height="268" as="geometry"><mxRectangle x="281" width="160" height="26" as="alternateBounds"/></mxGeometry></mxCell><mxCell id="X3iBoTwYunZCs_lj_990-39" value="# listener_: events::IEvent*" style="text;align=left;verticalAlign=top;spacingLeft=4;spacingRight=4;overflow=hidden;rotatable=0;points=[[0,0.5],[1,0.5]];portConstraint=eastwest;" parent="X3iBoTwYunZCs_lj_990-38" vertex="1"><mxGeometry y="26" width="310" height="26" as="geometry"/></mxCell><mxCell id="X3iBoTwYunZCs_lj_990-40" value="# passable_: bool" style="text;align=left;verticalAlign=top;spacingLeft=4;spacingRight=4;overflow=hidden;rotatable=0;points=[[0,0.5],[1,0.5]];portConstraint=eastwest;rounded=0;shadow=0;html=0;" parent="X3iBoTwYunZCs_lj_990-38" vertex="1"><mxGeometry y="52" width="310" height="26" as="geometry"/></mxCell><mxCell id="X3iBoTwYunZCs_lj_990-41" value="# position_: Point" style="text;align=left;verticalAlign=top;spacingLeft=4;spacingRight=4;overflow=hidden;rotatable=0;points=[[0,0.5],[1,0.5]];portConstraint=eastwest;rounded=0;shadow=0;html=0;" parent="X3iBoTwYunZCs_lj_990-38" vertex="1"><mxGeometry y="78" width="310" height="26" as="geometry"/></mxCell><mxCell id="X3iBoTwYunZCs_lj_990-42" value="" style="line;html=1;strokeWidth=1;align=left;verticalAlign=middle;spacingTop=-1;spacingLeft=3;spacingRight=3;rotatable=0;labelPosition=right;points=[];portConstraint=eastwest;" parent="X3iBoTwYunZCs_lj_990-38" vertex="1"><mxGeometry y="104" width="310" height="8" as="geometry"/></mxCell><mxCell id="X3iBoTwYunZCs_lj_990-43" value="+ addListener(events::IEvent*): void&#10;" style="text;align=left;verticalAlign=top;spacingLeft=4;spacingRight=4;overflow=hidden;rotatable=0;points=[[0,0.5],[1,0.5]];portConstraint=eastwest;" parent="X3iBoTwYunZCs_lj_990-38" vertex="1"><mxGeometry y="112" width="310" height="26" as="geometry"/></mxCell><mxCell id="X3iBoTwYunZCs_lj_990-44" value="+ isPassable(): bool" style="text;align=left;verticalAlign=top;spacingLeft=4;spacingRight=4;overflow=hidden;rotatable=0;points=[[0,0.5],[1,0.5]];portConstraint=eastwest;" parent="X3iBoTwYunZCs_lj_990-38" vertex="1"><mxGeometry y="138" width="310" height="26" as="geometry"/></mxCell><mxCell id="X3iBoTwYunZCs_lj_990-45" value="+ getPosition(): Point" style="text;align=left;verticalAlign=top;spacingLeft=4;spacingRight=4;overflow=hidden;rotatable=0;points=[[0,0.5],[1,0.5]];portConstraint=eastwest;" parent="X3iBoTwYunZCs_lj_990-38" vertex="1"><mxGeometry y="164" width="310" height="26" as="geometry"/></mxCell><mxCell id="X3iBoTwYunZCs_lj_990-46" value="+ dispatchListener(): void" style="text;align=left;verticalAlign=top;spacingLeft=4;spacingRight=4;overflow=hidden;rotatable=0;points=[[0,0.5],[1,0.5]];portConstraint=eastwest;" parent="X3iBoTwYunZCs_lj_990-38" vertex="1"><mxGeometry y="190" width="310" height="26" as="geometry"/></mxCell><mxCell id="X3iBoTwYunZCs_lj_990-50" value="+ removeListener(): void" style="text;align=left;verticalAlign=top;spacingLeft=4;spacingRight=4;overflow=hidden;rotatable=0;points=[[0,0.5],[1,0.5]];portConstraint=eastwest;" parent="X3iBoTwYunZCs_lj_990-38" vertex="1"><mxGeometry y="216" width="310" height="26" as="geometry"/></mxCell><mxCell id="X3iBoTwYunZCs_lj_990-51" value="+ changeState(bool): void" style="text;align=left;verticalAlign=top;spacingLeft=4;spacingRight=4;overflow=hidden;rotatable=0;points=[[0,0.5],[1,0.5]];portConstraint=eastwest;" parent="X3iBoTwYunZCs_lj_990-38" vertex="1"><mxGeometry y="242" width="310" height="26" as="geometry"/></mxCell><mxCell id="X3iBoTwYunZCs_lj_990-55" value="«interface»&#10;IEvent" style="swimlane;fontStyle=0;childLayout=stackLayout;horizontal=1;startSize=40;fillColor=none;horizontalStack=0;resizeParent=1;resizeParentMax=0;resizeLast=0;collapsible=1;marginBottom=0;" parent="WIyWlLk6GJQsqaUBKTNV-1" vertex="1"><mxGeometry x="727" y="1261" width="310" height="66" as="geometry"/></mxCell><mxCell id="X3iBoTwYunZCs_lj_990-56" value="+ dispatch(Point): void" style="text;strokeColor=none;fillColor=none;align=left;verticalAlign=top;spacingLeft=4;spacingRight=4;overflow=hidden;rotatable=0;points=[[0,0.5],[1,0.5]];portConstraint=eastwest;" parent="X3iBoTwYunZCs_lj_990-55" vertex="1"><mxGeometry y="40" width="310" height="26" as="geometry"/></mxCell><mxCell id="X3iBoTwYunZCs_lj_990-66" value="kernel::Creature" style="swimlane;fontStyle=0;align=center;verticalAlign=top;childLayout=stackLayout;horizontal=1;startSize=26;horizontalStack=0;resizeParent=1;resizeLast=0;collapsible=1;marginBottom=0;rounded=0;shadow=0;strokeWidth=1;" parent="WIyWlLk6GJQsqaUBKTNV-1" vertex="1"><mxGeometry x="2046" y="64" width="310" height="346" as="geometry"><mxRectangle x="281" width="160" height="26" as="alternateBounds"/></mxGeometry></mxCell><mxCell id="X3iBoTwYunZCs_lj_990-67" value="# hp_: CreatureParam" style="text;align=left;verticalAlign=top;spacingLeft=4;spacingRight=4;overflow=hidden;rotatable=0;points=[[0,0.5],[1,0.5]];portConstraint=eastwest;" parent="X3iBoTwYunZCs_lj_990-66" vertex="1"><mxGeometry y="26" width="310" height="26" as="geometry"/></mxCell><mxCell id="X3iBoTwYunZCs_lj_990-68" value="# point_: Point" style="text;align=left;verticalAlign=top;spacingLeft=4;spacingRight=4;overflow=hidden;rotatable=0;points=[[0,0.5],[1,0.5]];portConstraint=eastwest;rounded=0;shadow=0;html=0;" parent="X3iBoTwYunZCs_lj_990-66" vertex="1"><mxGeometry y="52" width="310" height="26" as="geometry"/></mxCell><mxCell id="X3iBoTwYunZCs_lj_990-74" value="# damage_: int" style="text;align=left;verticalAlign=top;spacingLeft=4;spacingRight=4;overflow=hidden;rotatable=0;points=[[0,0.5],[1,0.5]];portConstraint=eastwest;rounded=0;shadow=0;html=0;" parent="X3iBoTwYunZCs_lj_990-66" vertex="1"><mxGeometry y="78" width="310" height="26" as="geometry"/></mxCell><mxCell id="O_oIPhdlYZOM3jG4M40S-21" value="# direction_: Direction" style="text;align=left;verticalAlign=top;spacingLeft=4;spacingRight=4;overflow=hidden;rotatable=0;points=[[0,0.5],[1,0.5]];portConstraint=eastwest;rounded=0;shadow=0;html=0;" parent="X3iBoTwYunZCs_lj_990-66" vertex="1"><mxGeometry y="104" width="310" height="26" as="geometry"/></mxCell><mxCell id="X3iBoTwYunZCs_lj_990-69" value="" style="line;html=1;strokeWidth=1;align=left;verticalAlign=middle;spacingTop=-1;spacingLeft=3;spacingRight=3;rotatable=0;labelPosition=right;points=[];portConstraint=eastwest;" parent="X3iBoTwYunZCs_lj_990-66" vertex="1"><mxGeometry y="130" width="310" height="8" as="geometry"/></mxCell><mxCell id="X3iBoTwYunZCs_lj_990-70" value="+ takeHit(int): void" style="text;align=left;verticalAlign=top;spacingLeft=4;spacingRight=4;overflow=hidden;rotatable=0;points=[[0,0.5],[1,0.5]];portConstraint=eastwest;" parent="X3iBoTwYunZCs_lj_990-66" vertex="1"><mxGeometry y="138" width="310" height="26" as="geometry"/></mxCell><mxCell id="X3iBoTwYunZCs_lj_990-75" value="+ heal(int, bool): void" style="text;align=left;verticalAlign=top;spacingLeft=4;spacingRight=4;overflow=hidden;rotatable=0;points=[[0,0.5],[1,0.5]];portConstraint=eastwest;" parent="X3iBoTwYunZCs_lj_990-66" vertex="1"><mxGeometry y="164" width="310" height="26" as="geometry"/></mxCell><mxCell id="X3iBoTwYunZCs_lj_990-77" value="+ setDamage(int): void" style="text;align=left;verticalAlign=top;spacingLeft=4;spacingRight=4;overflow=hidden;rotatable=0;points=[[0,0.5],[1,0.5]];portConstraint=eastwest;" parent="X3iBoTwYunZCs_lj_990-66" vertex="1"><mxGeometry y="190" width="310" height="26" as="geometry"/></mxCell><mxCell id="O_oIPhdlYZOM3jG4M40S-22" value="+ setPoint(Point): void" style="text;align=left;verticalAlign=top;spacingLeft=4;spacingRight=4;overflow=hidden;rotatable=0;points=[[0,0.5],[1,0.5]];portConstraint=eastwest;" parent="X3iBoTwYunZCs_lj_990-66" vertex="1"><mxGeometry y="216" width="310" height="26" as="geometry"/></mxCell><mxCell id="O_oIPhdlYZOM3jG4M40S-23" value="+ getPoint(): Point" style="text;align=left;verticalAlign=top;spacingLeft=4;spacingRight=4;overflow=hidden;rotatable=0;points=[[0,0.5],[1,0.5]];portConstraint=eastwest;" parent="X3iBoTwYunZCs_lj_990-66" vertex="1"><mxGeometry y="242" width="310" height="26" as="geometry"/></mxCell><mxCell id="O_oIPhdlYZOM3jG4M40S-24" value="+ setDirection(Direction): void" style="text;align=left;verticalAlign=top;spacingLeft=4;spacingRight=4;overflow=hidden;rotatable=0;points=[[0,0.5],[1,0.5]];portConstraint=eastwest;" parent="X3iBoTwYunZCs_lj_990-66" vertex="1"><mxGeometry y="268" width="310" height="26" as="geometry"/></mxCell><mxCell id="O_oIPhdlYZOM3jG4M40S-25" value="+ getDirection(): Direction" style="text;align=left;verticalAlign=top;spacingLeft=4;spacingRight=4;overflow=hidden;rotatable=0;points=[[0,0.5],[1,0.5]];portConstraint=eastwest;" parent="X3iBoTwYunZCs_lj_990-66" vertex="1"><mxGeometry y="294" width="310" height="26" as="geometry"/></mxCell><mxCell id="X3iBoTwYunZCs_lj_990-76" value="{virtual} + attack(): int" style="text;align=left;verticalAlign=top;spacingLeft=4;spacingRight=4;overflow=hidden;rotatable=0;points=[[0,0.5],[1,0.5]];portConstraint=eastwest;" parent="X3iBoTwYunZCs_lj_990-66" vertex="1"><mxGeometry y="320" width="310" height="26" as="geometry"/></mxCell><mxCell id="O_oIPhdlYZOM3jG4M40S-34" value="" style="edgeStyle=orthogonalEdgeStyle;rounded=0;orthogonalLoop=1;jettySize=auto;html=1;endArrow=block;endFill=0;startSize=14;endSize=14;" parent="WIyWlLk6GJQsqaUBKTNV-1" source="X3iBoTwYunZCs_lj_990-88" target="X3iBoTwYunZCs_lj_990-66" edge="1"><mxGeometry relative="1" as="geometry"/></mxCell><mxCell id="O_oIPhdlYZOM3jG4M40S-35" style="edgeStyle=orthogonalEdgeStyle;rounded=0;orthogonalLoop=1;jettySize=auto;html=1;endArrow=diamondThin;endFill=1;startSize=14;endSize=14;" parent="WIyWlLk6GJQsqaUBKTNV-1" source="X3iBoTwYunZCs_lj_990-88" target="O_oIPhdlYZOM3jG4M40S-1" edge="1"><mxGeometry relative="1" as="geometry"/></mxCell><mxCell id="X3iBoTwYunZCs_lj_990-88" value="kernel::Player" style="swimlane;fontStyle=0;align=center;verticalAlign=top;childLayout=stackLayout;horizontal=1;startSize=26;horizontalStack=0;resizeParent=1;resizeLast=0;collapsible=1;marginBottom=0;rounded=0;shadow=0;strokeWidth=1;" parent="WIyWlLk6GJQsqaUBKTNV-1" vertex="1"><mxGeometry x="2046" y="477" width="310" height="113" as="geometry"><mxRectangle x="281" width="160" height="26" as="alternateBounds"/></mxGeometry></mxCell><mxCell id="X3iBoTwYunZCs_lj_990-89" value="# stamina_: std::vector&lt;int&gt;" style="text;align=left;verticalAlign=top;spacingLeft=4;spacingRight=4;overflow=hidden;rotatable=0;points=[[0,0.5],[1,0.5]];portConstraint=eastwest;" parent="X3iBoTwYunZCs_lj_990-88" vertex="1"><mxGeometry y="26" width="310" height="26" as="geometry"/></mxCell><mxCell id="X3iBoTwYunZCs_lj_990-92" value="" style="line;html=1;strokeWidth=1;align=left;verticalAlign=middle;spacingTop=-1;spacingLeft=3;spacingRight=3;rotatable=0;labelPosition=right;points=[];portConstraint=eastwest;" parent="X3iBoTwYunZCs_lj_990-88" vertex="1"><mxGeometry y="52" width="310" height="8" as="geometry"/></mxCell><mxCell id="X3iBoTwYunZCs_lj_990-94" value="+ recoverStamina(int, bool): void" style="text;align=left;verticalAlign=top;spacingLeft=4;spacingRight=4;overflow=hidden;rotatable=0;points=[[0,0.5],[1,0.5]];portConstraint=eastwest;" parent="X3iBoTwYunZCs_lj_990-88" vertex="1"><mxGeometry y="60" width="310" height="26" as="geometry"/></mxCell><mxCell id="X3iBoTwYunZCs_lj_990-96" value="+ attack(): int" style="text;align=left;verticalAlign=top;spacingLeft=4;spacingRight=4;overflow=hidden;rotatable=0;points=[[0,0.5],[1,0.5]];portConstraint=eastwest;" parent="X3iBoTwYunZCs_lj_990-88" vertex="1"><mxGeometry y="86" width="310" height="26" as="geometry"/></mxCell><mxCell id="O_oIPhdlYZOM3jG4M40S-63" style="edgeStyle=orthogonalEdgeStyle;rounded=0;orthogonalLoop=1;jettySize=auto;html=1;endArrow=diamondThin;endFill=1;startSize=14;endSize=14;" parent="WIyWlLk6GJQsqaUBKTNV-1" source="O_oIPhdlYZOM3jG4M40S-1" target="O_oIPhdlYZOM3jG4M40S-40" edge="1"><mxGeometry relative="1" as="geometry"><Array as="points"><mxPoint x="1098" y="119"/><mxPoint x="1098" y="-176"/></Array></mxGeometry></mxCell><mxCell id="O_oIPhdlYZOM3jG4M40S-1" value="kernel::KernelController" style="swimlane;fontStyle=0;align=center;verticalAlign=top;childLayout=stackLayout;horizontal=1;startSize=26;horizontalStack=0;resizeParent=1;resizeLast=0;collapsible=1;marginBottom=0;rounded=0;shadow=0;strokeWidth=1;" parent="WIyWlLk6GJQsqaUBKTNV-1" vertex="1"><mxGeometry x="1240" y="90" width="310" height="294" as="geometry"><mxRectangle x="281" width="160" height="26" as="alternateBounds"/></mxGeometry></mxCell><mxCell id="O_oIPhdlYZOM3jG4M40S-2" value="# creature_manager_: CreatureManager *" style="text;align=left;verticalAlign=top;spacingLeft=4;spacingRight=4;overflow=hidden;rotatable=0;points=[[0,0.5],[1,0.5]];portConstraint=eastwest;" parent="O_oIPhdlYZOM3jG4M40S-1" vertex="1"><mxGeometry y="26" width="310" height="26" as="geometry"/></mxCell><mxCell id="O_oIPhdlYZOM3jG4M40S-12" value="# game_mediator_: GameMediator*" style="text;align=left;verticalAlign=top;spacingLeft=4;spacingRight=4;overflow=hidden;rotatable=0;points=[[0,0.5],[1,0.5]];portConstraint=eastwest;" parent="O_oIPhdlYZOM3jG4M40S-1" vertex="1"><mxGeometry y="52" width="310" height="26" as="geometry"/></mxCell><mxCell id="O_oIPhdlYZOM3jG4M40S-14" value="# player_: Player*" style="text;align=left;verticalAlign=top;spacingLeft=4;spacingRight=4;overflow=hidden;rotatable=0;points=[[0,0.5],[1,0.5]];portConstraint=eastwest;" parent="O_oIPhdlYZOM3jG4M40S-1" vertex="1"><mxGeometry y="78" width="310" height="26" as="geometry"/></mxCell><mxCell id="O_oIPhdlYZOM3jG4M40S-13" value="# field_: Field*" style="text;align=left;verticalAlign=top;spacingLeft=4;spacingRight=4;overflow=hidden;rotatable=0;points=[[0,0.5],[1,0.5]];portConstraint=eastwest;" parent="O_oIPhdlYZOM3jG4M40S-1" vertex="1"><mxGeometry y="104" width="310" height="26" as="geometry"/></mxCell><mxCell id="O_oIPhdlYZOM3jG4M40S-5" value="" style="line;html=1;strokeWidth=1;align=left;verticalAlign=middle;spacingTop=-1;spacingLeft=3;spacingRight=3;rotatable=0;labelPosition=right;points=[];portConstraint=eastwest;" parent="O_oIPhdlYZOM3jG4M40S-1" vertex="1"><mxGeometry y="130" width="310" height="8" as="geometry"/></mxCell><mxCell id="O_oIPhdlYZOM3jG4M40S-9" value="+ setField(Field *): void" style="text;align=left;verticalAlign=top;spacingLeft=4;spacingRight=4;overflow=hidden;rotatable=0;points=[[0,0.5],[1,0.5]];portConstraint=eastwest;" parent="O_oIPhdlYZOM3jG4M40S-1" vertex="1"><mxGeometry y="138" width="310" height="26" as="geometry"/></mxCell><mxCell id="O_oIPhdlYZOM3jG4M40S-15" value="+ update(): void" style="text;align=left;verticalAlign=top;spacingLeft=4;spacingRight=4;overflow=hidden;rotatable=0;points=[[0,0.5],[1,0.5]];portConstraint=eastwest;" parent="O_oIPhdlYZOM3jG4M40S-1" vertex="1"><mxGeometry y="164" width="310" height="26" as="geometry"/></mxCell><mxCell id="O_oIPhdlYZOM3jG4M40S-16" value="+ getPlayer(): Player *" style="text;align=left;verticalAlign=top;spacingLeft=4;spacingRight=4;overflow=hidden;rotatable=0;points=[[0,0.5],[1,0.5]];portConstraint=eastwest;" parent="O_oIPhdlYZOM3jG4M40S-1" vertex="1"><mxGeometry y="190" width="310" height="26" as="geometry"/></mxCell><mxCell id="O_oIPhdlYZOM3jG4M40S-18" value="+ moveCreature(Creature *, Point, bool): void" style="text;align=left;verticalAlign=top;spacingLeft=4;spacingRight=4;overflow=hidden;rotatable=0;points=[[0,0.5],[1,0.5]];portConstraint=eastwest;" parent="O_oIPhdlYZOM3jG4M40S-1" vertex="1"><mxGeometry y="216" width="310" height="26" as="geometry"/></mxCell><mxCell id="O_oIPhdlYZOM3jG4M40S-20" value="+ rotateCreature(Creature *, Creature::Direction): void" style="text;align=left;verticalAlign=top;spacingLeft=4;spacingRight=4;overflow=hidden;rotatable=0;points=[[0,0.5],[1,0.5]];portConstraint=eastwest;" parent="O_oIPhdlYZOM3jG4M40S-1" vertex="1"><mxGeometry y="242" width="310" height="26" as="geometry"/></mxCell><mxCell id="O_oIPhdlYZOM3jG4M40S-17" value="+ getCreatureManager(): CreatureManager *" style="text;align=left;verticalAlign=top;spacingLeft=4;spacingRight=4;overflow=hidden;rotatable=0;points=[[0,0.5],[1,0.5]];portConstraint=eastwest;" parent="O_oIPhdlYZOM3jG4M40S-1" vertex="1"><mxGeometry y="268" width="310" height="26" as="geometry"/></mxCell><mxCell id="O_oIPhdlYZOM3jG4M40S-40" value="GameController" style="swimlane;fontStyle=0;align=center;verticalAlign=top;childLayout=stackLayout;horizontal=1;startSize=26;horizontalStack=0;resizeParent=1;resizeLast=0;collapsible=1;marginBottom=0;rounded=0;shadow=0;strokeWidth=1;" parent="WIyWlLk6GJQsqaUBKTNV-1" vertex="1"><mxGeometry x="738" y="-285" width="278" height="216" as="geometry"><mxRectangle x="281" width="160" height="26" as="alternateBounds"/></mxGeometry></mxCell><mxCell id="O_oIPhdlYZOM3jG4M40S-90" value="# view_controller_: view::ViewController *" style="text;align=left;verticalAlign=top;spacingLeft=4;spacingRight=4;overflow=hidden;rotatable=0;points=[[0,0.5],[1,0.5]];portConstraint=eastwest;" parent="O_oIPhdlYZOM3jG4M40S-40" vertex="1"><mxGeometry y="26" width="278" height="26" as="geometry"/></mxCell><mxCell id="O_oIPhdlYZOM3jG4M40S-91" value="# kernel_controller_: kernel::KernelController *" style="text;align=left;verticalAlign=top;spacingLeft=4;spacingRight=4;overflow=hidden;rotatable=0;points=[[0,0.5],[1,0.5]];portConstraint=eastwest;rounded=0;shadow=0;html=0;" parent="O_oIPhdlYZOM3jG4M40S-40" vertex="1"><mxGeometry y="52" width="278" height="26" as="geometry"/></mxCell><mxCell id="O_oIPhdlYZOM3jG4M40S-93" value="# map_maker_: mapmaker::MapMaker *" style="text;align=left;verticalAlign=top;spacingLeft=4;spacingRight=4;overflow=hidden;rotatable=0;points=[[0,0.5],[1,0.5]];portConstraint=eastwest;rounded=0;shadow=0;html=0;" parent="O_oIPhdlYZOM3jG4M40S-40" vertex="1"><mxGeometry y="78" width="278" height="26" as="geometry"/></mxCell><mxCell id="O_oIPhdlYZOM3jG4M40S-95" value="# game_mediator_: GameMediator*" style="text;align=left;verticalAlign=top;spacingLeft=4;spacingRight=4;overflow=hidden;rotatable=0;points=[[0,0.5],[1,0.5]];portConstraint=eastwest;" parent="O_oIPhdlYZOM3jG4M40S-40" vertex="1"><mxGeometry y="104" width="278" height="26" as="geometry"/></mxCell><mxCell id="O_oIPhdlYZOM3jG4M40S-92" value="# events_controller_: events::EventsController *" style="text;align=left;verticalAlign=top;spacingLeft=4;spacingRight=4;overflow=hidden;rotatable=0;points=[[0,0.5],[1,0.5]];portConstraint=eastwest;rounded=0;shadow=0;html=0;" parent="O_oIPhdlYZOM3jG4M40S-40" vertex="1"><mxGeometry y="130" width="278" height="26" as="geometry"/></mxCell><mxCell id="O_oIPhdlYZOM3jG4M40S-43" value="# view_controller_: view::ViewController*" style="text;align=left;verticalAlign=top;spacingLeft=4;spacingRight=4;overflow=hidden;rotatable=0;points=[[0,0.5],[1,0.5]];portConstraint=eastwest;rounded=0;shadow=0;html=0;" parent="O_oIPhdlYZOM3jG4M40S-40" vertex="1"><mxGeometry y="156" width="278" height="26" as="geometry"/></mxCell><mxCell id="O_oIPhdlYZOM3jG4M40S-45" value="" style="line;html=1;strokeWidth=1;align=left;verticalAlign=middle;spacingTop=-1;spacingLeft=3;spacingRight=3;rotatable=0;labelPosition=right;points=[];portConstraint=eastwest;" parent="O_oIPhdlYZOM3jG4M40S-40" vertex="1"><mxGeometry y="182" width="278" height="8" as="geometry"/></mxCell><mxCell id="O_oIPhdlYZOM3jG4M40S-46" value="+ start(): void" style="text;align=left;verticalAlign=top;spacingLeft=4;spacingRight=4;overflow=hidden;rotatable=0;points=[[0,0.5],[1,0.5]];portConstraint=eastwest;" parent="O_oIPhdlYZOM3jG4M40S-40" vertex="1"><mxGeometry y="190" width="278" height="26" as="geometry"/></mxCell><mxCell id="O_oIPhdlYZOM3jG4M40S-74" style="edgeStyle=orthogonalEdgeStyle;rounded=0;orthogonalLoop=1;jettySize=auto;html=1;startArrow=none;startFill=0;endArrow=diamondThin;endFill=1;startSize=14;endSize=14;" parent="WIyWlLk6GJQsqaUBKTNV-1" source="O_oIPhdlYZOM3jG4M40S-51" target="zkfFHV4jXpPFQw0GAbJ--6" edge="1"><mxGeometry relative="1" as="geometry"/></mxCell><mxCell id="O_oIPhdlYZOM3jG4M40S-51" value="GameStateController" style="swimlane;fontStyle=0;align=center;verticalAlign=top;childLayout=stackLayout;horizontal=1;startSize=26;horizontalStack=0;resizeParent=1;resizeLast=0;collapsible=1;marginBottom=0;rounded=0;shadow=0;strokeWidth=1;" parent="WIyWlLk6GJQsqaUBKTNV-1" vertex="1"><mxGeometry x="738" y="564" width="278" height="112" as="geometry"><mxRectangle x="281" width="160" height="26" as="alternateBounds"/></mxGeometry></mxCell><mxCell id="O_oIPhdlYZOM3jG4M40S-52" value="# state: State" style="text;align=left;verticalAlign=top;spacingLeft=4;spacingRight=4;overflow=hidden;rotatable=0;points=[[0,0.5],[1,0.5]];portConstraint=eastwest;" parent="O_oIPhdlYZOM3jG4M40S-51" vertex="1"><mxGeometry y="26" width="278" height="26" as="geometry"/></mxCell><mxCell id="O_oIPhdlYZOM3jG4M40S-56" value="" style="line;html=1;strokeWidth=1;align=left;verticalAlign=middle;spacingTop=-1;spacingLeft=3;spacingRight=3;rotatable=0;labelPosition=right;points=[];portConstraint=eastwest;" parent="O_oIPhdlYZOM3jG4M40S-51" vertex="1"><mxGeometry y="52" width="278" height="8" as="geometry"/></mxCell><mxCell id="O_oIPhdlYZOM3jG4M40S-57" value="+ setState(State): void" style="text;align=left;verticalAlign=top;spacingLeft=4;spacingRight=4;overflow=hidden;rotatable=0;points=[[0,0.5],[1,0.5]];portConstraint=eastwest;" parent="O_oIPhdlYZOM3jG4M40S-51" vertex="1"><mxGeometry y="60" width="278" height="26" as="geometry"/></mxCell><mxCell id="O_oIPhdlYZOM3jG4M40S-58" value="+ getState(): State" style="text;align=left;verticalAlign=top;spacingLeft=4;spacingRight=4;overflow=hidden;rotatable=0;points=[[0,0.5],[1,0.5]];portConstraint=eastwest;" parent="O_oIPhdlYZOM3jG4M40S-51" vertex="1"><mxGeometry y="86" width="278" height="26" as="geometry"/></mxCell><mxCell id="O_oIPhdlYZOM3jG4M40S-76" value="events::EventsController" style="swimlane;fontStyle=0;align=center;verticalAlign=top;childLayout=stackLayout;horizontal=1;startSize=26;horizontalStack=0;resizeParent=1;resizeLast=0;collapsible=1;marginBottom=0;rounded=0;shadow=0;strokeWidth=1;" parent="WIyWlLk6GJQsqaUBKTNV-1" vertex="1"><mxGeometry x="203" y="155" width="310" height="164" as="geometry"><mxRectangle x="281" width="160" height="26" as="alternateBounds"/></mxGeometry></mxCell><mxCell id="O_oIPhdlYZOM3jG4M40S-77" value="# factories_: std::map&lt;Factory, IEventFactory *&gt; " style="text;align=left;verticalAlign=top;spacingLeft=4;spacingRight=4;overflow=hidden;rotatable=0;points=[[0,0.5],[1,0.5]];portConstraint=eastwest;" parent="O_oIPhdlYZOM3jG4M40S-76" vertex="1"><mxGeometry y="26" width="310" height="26" as="geometry"/></mxCell><mxCell id="O_oIPhdlYZOM3jG4M40S-78" value="# game_mediator_: GameMediator*" style="text;align=left;verticalAlign=top;spacingLeft=4;spacingRight=4;overflow=hidden;rotatable=0;points=[[0,0.5],[1,0.5]];portConstraint=eastwest;" parent="O_oIPhdlYZOM3jG4M40S-76" vertex="1"><mxGeometry y="52" width="310" height="26" as="geometry"/></mxCell><mxCell id="O_oIPhdlYZOM3jG4M40S-81" value="" style="line;html=1;strokeWidth=1;align=left;verticalAlign=middle;spacingTop=-1;spacingLeft=3;spacingRight=3;rotatable=0;labelPosition=right;points=[];portConstraint=eastwest;" parent="O_oIPhdlYZOM3jG4M40S-76" vertex="1"><mxGeometry y="78" width="310" height="8" as="geometry"/></mxCell><mxCell id="O_oIPhdlYZOM3jG4M40S-82" value="+ getFactory(Factory): IEventFactory *" style="text;align=left;verticalAlign=top;spacingLeft=4;spacingRight=4;overflow=hidden;rotatable=0;points=[[0,0.5],[1,0.5]];portConstraint=eastwest;" parent="O_oIPhdlYZOM3jG4M40S-76" vertex="1"><mxGeometry y="86" width="310" height="26" as="geometry"/></mxCell><mxCell id="O_oIPhdlYZOM3jG4M40S-83" value="+ produce(Factory, const std::string&amp;): EventChainLink *" style="text;align=left;verticalAlign=top;spacingLeft=4;spacingRight=4;overflow=hidden;rotatable=0;points=[[0,0.5],[1,0.5]];portConstraint=eastwest;" parent="O_oIPhdlYZOM3jG4M40S-76" vertex="1"><mxGeometry y="112" width="310" height="26" as="geometry"/></mxCell><mxCell id="O_oIPhdlYZOM3jG4M40S-84" value="+ getEmptyEvent(): EventChainLink *" style="text;align=left;verticalAlign=top;spacingLeft=4;spacingRight=4;overflow=hidden;rotatable=0;points=[[0,0.5],[1,0.5]];portConstraint=eastwest;fontStyle=4" parent="O_oIPhdlYZOM3jG4M40S-76" vertex="1"><mxGeometry y="138" width="310" height="26" as="geometry"/></mxCell><mxCell id="O_oIPhdlYZOM3jG4M40S-88" style="edgeStyle=orthogonalEdgeStyle;rounded=0;orthogonalLoop=1;jettySize=auto;html=1;endArrow=openThin;endFill=0;startSize=14;endSize=14;startArrow=openThin;startFill=0;dashed=1;" parent="WIyWlLk6GJQsqaUBKTNV-1" source="O_oIPhdlYZOM3jG4M40S-76" target="zkfFHV4jXpPFQw0GAbJ--6" edge="1"><mxGeometry relative="1" as="geometry"><mxPoint x="1026" y="247" as="sourcePoint"/><mxPoint x="1250" y="247" as="targetPoint"/></mxGeometry></mxCell><mxCell id="O_oIPhdlYZOM3jG4M40S-89" style="edgeStyle=orthogonalEdgeStyle;rounded=0;orthogonalLoop=1;jettySize=auto;html=1;endArrow=diamondThin;endFill=1;startSize=14;endSize=14;" parent="WIyWlLk6GJQsqaUBKTNV-1" source="O_oIPhdlYZOM3jG4M40S-76" target="O_oIPhdlYZOM3jG4M40S-40" edge="1"><mxGeometry relative="1" as="geometry"><mxPoint x="887" y="48" as="sourcePoint"/><mxPoint x="887" y="-32" as="targetPoint"/><Array as="points"><mxPoint x="635" y="181"/><mxPoint x="635" y="-176"/></Array></mxGeometry></mxCell><mxCell id="O_oIPhdlYZOM3jG4M40S-96" value="«interface»&#10;events::IEventFactory" style="swimlane;fontStyle=0;align=center;verticalAlign=top;childLayout=stackLayout;horizontal=1;startSize=40;horizontalStack=0;resizeParent=1;resizeLast=0;collapsible=1;marginBottom=0;rounded=0;shadow=0;strokeWidth=1;" parent="WIyWlLk6GJQsqaUBKTNV-1" vertex="1"><mxGeometry x="277" y="458" width="310" height="68" as="geometry"><mxRectangle x="281" width="160" height="26" as="alternateBounds"/></mxGeometry></mxCell><mxCell id="O_oIPhdlYZOM3jG4M40S-107" value="+ produce(const std::string&amp;): EventChainLink *" style="text;align=left;verticalAlign=top;spacingLeft=4;spacingRight=4;overflow=hidden;rotatable=0;points=[[0,0.5],[1,0.5]];portConstraint=eastwest;" parent="O_oIPhdlYZOM3jG4M40S-96" vertex="1"><mxGeometry y="40" width="310" height="26" as="geometry"/></mxCell><mxCell id="O_oIPhdlYZOM3jG4M40S-108" style="edgeStyle=orthogonalEdgeStyle;rounded=0;orthogonalLoop=1;jettySize=auto;html=1;startArrow=none;startFill=0;endArrow=diamondThin;endFill=1;startSize=14;endSize=14;" parent="WIyWlLk6GJQsqaUBKTNV-1" source="O_oIPhdlYZOM3jG4M40S-96" target="O_oIPhdlYZOM3jG4M40S-76" edge="1"><mxGeometry relative="1" as="geometry"><mxPoint x="887" y="574" as="sourcePoint"/><mxPoint x="887" y="446" as="targetPoint"/></mxGeometry></mxCell><mxCell id="O_oIPhdlYZOM3jG4M40S-120" style="edgeStyle=orthogonalEdgeStyle;rounded=0;orthogonalLoop=1;jettySize=auto;html=1;dashed=1;startArrow=none;startFill=0;endArrow=block;endFill=0;startSize=14;endSize=14;" parent="WIyWlLk6GJQsqaUBKTNV-1" source="O_oIPhdlYZOM3jG4M40S-109" target="X3iBoTwYunZCs_lj_990-55" edge="1"><mxGeometry relative="1" as="geometry"/></mxCell><mxCell id="O_oIPhdlYZOM3jG4M40S-109" value="events::EventChainLink" style="swimlane;fontStyle=0;align=center;verticalAlign=top;childLayout=stackLayout;horizontal=1;startSize=26;horizontalStack=0;resizeParent=1;resizeLast=0;collapsible=1;marginBottom=0;rounded=0;shadow=0;strokeWidth=1;" parent="WIyWlLk6GJQsqaUBKTNV-1" vertex="1"><mxGeometry x="254" y="1261" width="349" height="216" as="geometry"><mxRectangle x="281" width="160" height="26" as="alternateBounds"/></mxGeometry></mxCell><mxCell id="O_oIPhdlYZOM3jG4M40S-110" value="# prev_chain_link_: EventChainLink *" style="text;align=left;verticalAlign=top;spacingLeft=4;spacingRight=4;overflow=hidden;rotatable=0;points=[[0,0.5],[1,0.5]];portConstraint=eastwest;" parent="O_oIPhdlYZOM3jG4M40S-109" vertex="1"><mxGeometry y="26" width="349" height="26" as="geometry"/></mxCell><mxCell id="O_oIPhdlYZOM3jG4M40S-114" value="# next_chain_link_: EventChainLink *" style="text;align=left;verticalAlign=top;spacingLeft=4;spacingRight=4;overflow=hidden;rotatable=0;points=[[0,0.5],[1,0.5]];portConstraint=eastwest;" parent="O_oIPhdlYZOM3jG4M40S-109" vertex="1"><mxGeometry y="52" width="349" height="26" as="geometry"/></mxCell><mxCell id="O_oIPhdlYZOM3jG4M40S-115" value="# transmit_checker_: std::function&lt;bool()&gt;" style="text;align=left;verticalAlign=top;spacingLeft=4;spacingRight=4;overflow=hidden;rotatable=0;points=[[0,0.5],[1,0.5]];portConstraint=eastwest;" parent="O_oIPhdlYZOM3jG4M40S-109" vertex="1"><mxGeometry y="78" width="349" height="26" as="geometry"/></mxCell><mxCell id="O_oIPhdlYZOM3jG4M40S-111" value="" style="line;html=1;strokeWidth=1;align=left;verticalAlign=middle;spacingTop=-1;spacingLeft=3;spacingRight=3;rotatable=0;labelPosition=right;points=[];portConstraint=eastwest;" parent="O_oIPhdlYZOM3jG4M40S-109" vertex="1"><mxGeometry y="104" width="349" height="8" as="geometry"/></mxCell><mxCell id="O_oIPhdlYZOM3jG4M40S-112" value="+ addNext(EventChainLink *, bool): EventChainLink *" style="text;align=left;verticalAlign=top;spacingLeft=4;spacingRight=4;overflow=hidden;rotatable=0;points=[[0,0.5],[1,0.5]];portConstraint=eastwest;" parent="O_oIPhdlYZOM3jG4M40S-109" vertex="1"><mxGeometry y="112" width="349" height="26" as="geometry"/></mxCell><mxCell id="O_oIPhdlYZOM3jG4M40S-116" value="+ getFirst(): EventChainLink *" style="text;align=left;verticalAlign=top;spacingLeft=4;spacingRight=4;overflow=hidden;rotatable=0;points=[[0,0.5],[1,0.5]];portConstraint=eastwest;" parent="O_oIPhdlYZOM3jG4M40S-109" vertex="1"><mxGeometry y="138" width="349" height="26" as="geometry"/></mxCell><mxCell id="O_oIPhdlYZOM3jG4M40S-118" value="+ setTransmitChecker(std::function&lt;bool()&gt;): EventChainLink *" style="text;align=left;verticalAlign=top;spacingLeft=4;spacingRight=4;overflow=hidden;rotatable=0;points=[[0,0.5],[1,0.5]];portConstraint=eastwest;" parent="O_oIPhdlYZOM3jG4M40S-109" vertex="1"><mxGeometry y="164" width="349" height="26" as="geometry"/></mxCell><mxCell id="O_oIPhdlYZOM3jG4M40S-117" value="+ dispatchNext(Point): void" style="text;align=left;verticalAlign=top;spacingLeft=4;spacingRight=4;overflow=hidden;rotatable=0;points=[[0,0.5],[1,0.5]];portConstraint=eastwest;" parent="O_oIPhdlYZOM3jG4M40S-109" vertex="1"><mxGeometry y="190" width="349" height="26" as="geometry"/></mxCell><mxCell id="O_oIPhdlYZOM3jG4M40S-123" value="events::CellsEvent" style="swimlane;fontStyle=0;align=center;verticalAlign=top;childLayout=stackLayout;horizontal=1;startSize=26;horizontalStack=0;resizeParent=1;resizeLast=0;collapsible=1;marginBottom=0;rounded=0;shadow=0;strokeWidth=1;" parent="WIyWlLk6GJQsqaUBKTNV-1" vertex="1"><mxGeometry x="-166" y="695" width="349" height="60" as="geometry"><mxRectangle x="281" width="160" height="26" as="alternateBounds"/></mxGeometry></mxCell><mxCell id="O_oIPhdlYZOM3jG4M40S-124" value="# field_: kernel::Field *" style="text;align=left;verticalAlign=top;spacingLeft=4;spacingRight=4;overflow=hidden;rotatable=0;points=[[0,0.5],[1,0.5]];portConstraint=eastwest;" parent="O_oIPhdlYZOM3jG4M40S-123" vertex="1"><mxGeometry y="26" width="349" height="26" as="geometry"/></mxCell><mxCell id="O_oIPhdlYZOM3jG4M40S-127" value="" style="line;html=1;strokeWidth=1;align=left;verticalAlign=middle;spacingTop=-1;spacingLeft=3;spacingRight=3;rotatable=0;labelPosition=right;points=[];portConstraint=eastwest;" parent="O_oIPhdlYZOM3jG4M40S-123" vertex="1"><mxGeometry y="52" width="349" height="8" as="geometry"/></mxCell><mxCell id="O_oIPhdlYZOM3jG4M40S-133" value="events::FieldEvent" style="swimlane;fontStyle=0;align=center;verticalAlign=top;childLayout=stackLayout;horizontal=1;startSize=26;horizontalStack=0;resizeParent=1;resizeLast=0;collapsible=1;marginBottom=0;rounded=0;shadow=0;strokeWidth=1;" parent="WIyWlLk6GJQsqaUBKTNV-1" vertex="1"><mxGeometry x="-166" y="831" width="349" height="60" as="geometry"><mxRectangle x="281" width="160" height="26" as="alternateBounds"/></mxGeometry></mxCell><mxCell id="O_oIPhdlYZOM3jG4M40S-134" value="# field_: kernel::Field *" style="text;align=left;verticalAlign=top;spacingLeft=4;spacingRight=4;overflow=hidden;rotatable=0;points=[[0,0.5],[1,0.5]];portConstraint=eastwest;" parent="O_oIPhdlYZOM3jG4M40S-133" vertex="1"><mxGeometry y="26" width="349" height="26" as="geometry"/></mxCell><mxCell id="O_oIPhdlYZOM3jG4M40S-135" value="" style="line;html=1;strokeWidth=1;align=left;verticalAlign=middle;spacingTop=-1;spacingLeft=3;spacingRight=3;rotatable=0;labelPosition=right;points=[];portConstraint=eastwest;" parent="O_oIPhdlYZOM3jG4M40S-133" vertex="1"><mxGeometry y="52" width="349" height="8" as="geometry"/></mxCell><mxCell id="O_oIPhdlYZOM3jG4M40S-136" value="events::PlayerEvent" style="swimlane;fontStyle=0;align=center;verticalAlign=top;childLayout=stackLayout;horizontal=1;startSize=26;horizontalStack=0;resizeParent=1;resizeLast=0;collapsible=1;marginBottom=0;rounded=0;shadow=0;strokeWidth=1;" parent="WIyWlLk6GJQsqaUBKTNV-1" vertex="1"><mxGeometry x="-166" y="1118" width="349" height="60" as="geometry"><mxRectangle x="281" width="160" height="26" as="alternateBounds"/></mxGeometry></mxCell><mxCell id="O_oIPhdlYZOM3jG4M40S-137" value="# player_: kernel::Player *" style="text;align=left;verticalAlign=top;spacingLeft=4;spacingRight=4;overflow=hidden;rotatable=0;points=[[0,0.5],[1,0.5]];portConstraint=eastwest;" parent="O_oIPhdlYZOM3jG4M40S-136" vertex="1"><mxGeometry y="26" width="349" height="26" as="geometry"/></mxCell><mxCell id="O_oIPhdlYZOM3jG4M40S-138" value="" style="line;html=1;strokeWidth=1;align=left;verticalAlign=middle;spacingTop=-1;spacingLeft=3;spacingRight=3;rotatable=0;labelPosition=right;points=[];portConstraint=eastwest;" parent="O_oIPhdlYZOM3jG4M40S-136" vertex="1"><mxGeometry y="52" width="349" height="8" as="geometry"/></mxCell><mxCell id="O_oIPhdlYZOM3jG4M40S-139" value="events::GameStateEvent" style="swimlane;fontStyle=0;align=center;verticalAlign=top;childLayout=stackLayout;horizontal=1;startSize=26;horizontalStack=0;resizeParent=1;resizeLast=0;collapsible=1;marginBottom=0;rounded=0;shadow=0;strokeWidth=1;" parent="WIyWlLk6GJQsqaUBKTNV-1" vertex="1"><mxGeometry x="-166" y="948" width="349" height="60" as="geometry"><mxRectangle x="281" width="160" height="26" as="alternateBounds"/></mxGeometry></mxCell><mxCell id="O_oIPhdlYZOM3jG4M40S-140" value="# game_state_controller_: GameStateController &amp;" style="text;align=left;verticalAlign=top;spacingLeft=4;spacingRight=4;overflow=hidden;rotatable=0;points=[[0,0.5],[1,0.5]];portConstraint=eastwest;" parent="O_oIPhdlYZOM3jG4M40S-139" vertex="1"><mxGeometry y="26" width="349" height="26" as="geometry"/></mxCell><mxCell id="O_oIPhdlYZOM3jG4M40S-141" value="" style="line;html=1;strokeWidth=1;align=left;verticalAlign=middle;spacingTop=-1;spacingLeft=3;spacingRight=3;rotatable=0;labelPosition=right;points=[];portConstraint=eastwest;" parent="O_oIPhdlYZOM3jG4M40S-139" vertex="1"><mxGeometry y="52" width="349" height="8" as="geometry"/></mxCell><mxCell id="O_oIPhdlYZOM3jG4M40S-142" value="" style="edgeStyle=orthogonalEdgeStyle;rounded=0;orthogonalLoop=1;jettySize=auto;html=1;dashed=1;endArrow=openThin;endFill=0;startSize=14;endSize=14;" parent="WIyWlLk6GJQsqaUBKTNV-1" source="O_oIPhdlYZOM3jG4M40S-139" target="O_oIPhdlYZOM3jG4M40S-51" edge="1"><mxGeometry relative="1" as="geometry"><mxPoint x="438.5" y="1270" as="sourcePoint"/><mxPoint x="438.5" y="514" as="targetPoint"/></mxGeometry></mxCell><mxCell id="O_oIPhdlYZOM3jG4M40S-143" value="" style="edgeStyle=orthogonalEdgeStyle;rounded=0;orthogonalLoop=1;jettySize=auto;html=1;dashed=1;endArrow=openThin;endFill=0;startSize=14;endSize=14;" parent="WIyWlLk6GJQsqaUBKTNV-1" source="O_oIPhdlYZOM3jG4M40S-136" target="X3iBoTwYunZCs_lj_990-88" edge="1"><mxGeometry relative="1" as="geometry"><mxPoint x="448.5" y="1280" as="sourcePoint"/><mxPoint x="448.5" y="524" as="targetPoint"/><Array as="points"><mxPoint x="-7" y="1532"/><mxPoint x="2201" y="1532"/></Array></mxGeometry></mxCell><mxCell id="O_oIPhdlYZOM3jG4M40S-144" value="" style="edgeStyle=orthogonalEdgeStyle;rounded=0;orthogonalLoop=1;jettySize=auto;html=1;dashed=1;endArrow=openThin;endFill=0;startSize=14;endSize=14;" parent="WIyWlLk6GJQsqaUBKTNV-1" source="O_oIPhdlYZOM3jG4M40S-133" target="X3iBoTwYunZCs_lj_990-24" edge="1"><mxGeometry relative="1" as="geometry"><mxPoint x="458.5" y="1290" as="sourcePoint"/><mxPoint x="458.5" y="534" as="targetPoint"/></mxGeometry></mxCell><mxCell id="O_oIPhdlYZOM3jG4M40S-145" value="" style="edgeStyle=orthogonalEdgeStyle;rounded=0;orthogonalLoop=1;jettySize=auto;html=1;dashed=1;endArrow=openThin;endFill=0;startSize=14;endSize=14;" parent="WIyWlLk6GJQsqaUBKTNV-1" source="O_oIPhdlYZOM3jG4M40S-123" target="X3iBoTwYunZCs_lj_990-24" edge="1"><mxGeometry relative="1" as="geometry"><mxPoint x="468.5" y="1300" as="sourcePoint"/><mxPoint x="468.5" y="544" as="targetPoint"/></mxGeometry></mxCell><mxCell id="O_oIPhdlYZOM3jG4M40S-146" value="" style="edgeStyle=orthogonalEdgeStyle;rounded=0;orthogonalLoop=1;jettySize=auto;html=1;endArrow=block;endFill=0;startSize=14;endSize=14;" parent="WIyWlLk6GJQsqaUBKTNV-1" source="O_oIPhdlYZOM3jG4M40S-136" target="O_oIPhdlYZOM3jG4M40S-109" edge="1"><mxGeometry relative="1" as="geometry"><mxPoint x="742" y="1610.9999999999998" as="sourcePoint"/><mxPoint x="742" y="1544" as="targetPoint"/></mxGeometry></mxCell><mxCell id="O_oIPhdlYZOM3jG4M40S-148" value="" style="edgeStyle=orthogonalEdgeStyle;rounded=0;orthogonalLoop=1;jettySize=auto;html=1;endArrow=block;endFill=0;startSize=14;endSize=14;" parent="WIyWlLk6GJQsqaUBKTNV-1" source="O_oIPhdlYZOM3jG4M40S-139" target="O_oIPhdlYZOM3jG4M40S-109" edge="1"><mxGeometry relative="1" as="geometry"><mxPoint x="728.5" y="1471.090909090909" as="sourcePoint"/><mxPoint x="613" y="1379.0909090909086" as="targetPoint"/></mxGeometry></mxCell><mxCell id="O_oIPhdlYZOM3jG4M40S-149" value="" style="edgeStyle=orthogonalEdgeStyle;rounded=0;orthogonalLoop=1;jettySize=auto;html=1;endArrow=block;endFill=0;startSize=14;endSize=14;" parent="WIyWlLk6GJQsqaUBKTNV-1" source="O_oIPhdlYZOM3jG4M40S-133" target="O_oIPhdlYZOM3jG4M40S-109" edge="1"><mxGeometry relative="1" as="geometry"><mxPoint x="738.5" y="1481.090909090909" as="sourcePoint"/><mxPoint x="623" y="1389.0909090909086" as="targetPoint"/></mxGeometry></mxCell><mxCell id="O_oIPhdlYZOM3jG4M40S-150" value="" style="edgeStyle=orthogonalEdgeStyle;rounded=0;orthogonalLoop=1;jettySize=auto;html=1;endArrow=block;endFill=0;startSize=14;endSize=14;" parent="WIyWlLk6GJQsqaUBKTNV-1" source="O_oIPhdlYZOM3jG4M40S-123" target="O_oIPhdlYZOM3jG4M40S-109" edge="1"><mxGeometry relative="1" as="geometry"><mxPoint x="748.5" y="1491.090909090909" as="sourcePoint"/><mxPoint x="633" y="1399.0909090909086" as="targetPoint"/></mxGeometry></mxCell><mxCell id="O_oIPhdlYZOM3jG4M40S-153" value="events::PlayerBeatEvent" style="swimlane;fontStyle=0;align=center;verticalAlign=top;childLayout=stackLayout;horizontal=1;startSize=26;horizontalStack=0;resizeParent=1;resizeLast=0;collapsible=1;marginBottom=0;rounded=0;shadow=0;strokeWidth=1;" parent="WIyWlLk6GJQsqaUBKTNV-1" vertex="1"><mxGeometry x="-655" y="1069" width="349" height="60" as="geometry"><mxRectangle x="281" width="160" height="26" as="alternateBounds"/></mxGeometry></mxCell><mxCell id="O_oIPhdlYZOM3jG4M40S-157" value="" style="line;html=1;strokeWidth=1;align=left;verticalAlign=middle;spacingTop=-1;spacingLeft=3;spacingRight=3;rotatable=0;labelPosition=right;points=[];portConstraint=eastwest;" parent="O_oIPhdlYZOM3jG4M40S-153" vertex="1"><mxGeometry y="26" width="349" height="8" as="geometry"/></mxCell><mxCell id="O_oIPhdlYZOM3jG4M40S-158" value="+ dispatch(Point): void" style="text;align=left;verticalAlign=top;spacingLeft=4;spacingRight=4;overflow=hidden;rotatable=0;points=[[0,0.5],[1,0.5]];portConstraint=eastwest;" parent="O_oIPhdlYZOM3jG4M40S-153" vertex="1"><mxGeometry y="34" width="349" height="26" as="geometry"/></mxCell><mxCell id="O_oIPhdlYZOM3jG4M40S-162" value="" style="edgeStyle=orthogonalEdgeStyle;rounded=0;orthogonalLoop=1;jettySize=auto;html=1;endArrow=block;endFill=0;startSize=14;endSize=14;" parent="WIyWlLk6GJQsqaUBKTNV-1" source="O_oIPhdlYZOM3jG4M40S-153" target="O_oIPhdlYZOM3jG4M40S-136" edge="1"><mxGeometry relative="1" as="geometry"><mxPoint x="193" y="747" as="sourcePoint"/><mxPoint x="438.5" y="1283" as="targetPoint"/></mxGeometry></mxCell><mxCell id="O_oIPhdlYZOM3jG4M40S-163" value="" style="edgeStyle=orthogonalEdgeStyle;rounded=0;orthogonalLoop=1;jettySize=auto;html=1;endArrow=block;endFill=0;startSize=14;endSize=14;" parent="WIyWlLk6GJQsqaUBKTNV-1" source="O_oIPhdlYZOM3jG4M40S-164" target="O_oIPhdlYZOM3jG4M40S-136" edge="1"><mxGeometry relative="1" as="geometry"><mxPoint x="-273" y="1316" as="sourcePoint"/><mxPoint x="-150" y="1316" as="targetPoint"/></mxGeometry></mxCell><mxCell id="O_oIPhdlYZOM3jG4M40S-164" value="events::PlayerHealEvent" style="swimlane;fontStyle=0;align=center;verticalAlign=top;childLayout=stackLayout;horizontal=1;startSize=26;horizontalStack=0;resizeParent=1;resizeLast=0;collapsible=1;marginBottom=0;rounded=0;shadow=0;strokeWidth=1;" parent="WIyWlLk6GJQsqaUBKTNV-1" vertex="1"><mxGeometry x="-655" y="1167" width="349" height="60" as="geometry"><mxRectangle x="281" width="160" height="26" as="alternateBounds"/></mxGeometry></mxCell><mxCell id="O_oIPhdlYZOM3jG4M40S-165" value="" style="line;html=1;strokeWidth=1;align=left;verticalAlign=middle;spacingTop=-1;spacingLeft=3;spacingRight=3;rotatable=0;labelPosition=right;points=[];portConstraint=eastwest;" parent="O_oIPhdlYZOM3jG4M40S-164" vertex="1"><mxGeometry y="26" width="349" height="8" as="geometry"/></mxCell><mxCell id="O_oIPhdlYZOM3jG4M40S-166" value="+ dispatch(Point): void" style="text;align=left;verticalAlign=top;spacingLeft=4;spacingRight=4;overflow=hidden;rotatable=0;points=[[0,0.5],[1,0.5]];portConstraint=eastwest;" parent="O_oIPhdlYZOM3jG4M40S-164" vertex="1"><mxGeometry y="34" width="349" height="26" as="geometry"/></mxCell><mxCell id="O_oIPhdlYZOM3jG4M40S-167" value="events::GameWinEvent" style="swimlane;fontStyle=0;align=center;verticalAlign=top;childLayout=stackLayout;horizontal=1;startSize=26;horizontalStack=0;resizeParent=1;resizeLast=0;collapsible=1;marginBottom=0;rounded=0;shadow=0;strokeWidth=1;" parent="WIyWlLk6GJQsqaUBKTNV-1" vertex="1"><mxGeometry x="-655" y="948" width="349" height="60" as="geometry"><mxRectangle x="281" width="160" height="26" as="alternateBounds"/></mxGeometry></mxCell><mxCell id="O_oIPhdlYZOM3jG4M40S-168" value="" style="line;html=1;strokeWidth=1;align=left;verticalAlign=middle;spacingTop=-1;spacingLeft=3;spacingRight=3;rotatable=0;labelPosition=right;points=[];portConstraint=eastwest;" parent="O_oIPhdlYZOM3jG4M40S-167" vertex="1"><mxGeometry y="26" width="349" height="8" as="geometry"/></mxCell><mxCell id="O_oIPhdlYZOM3jG4M40S-169" value="+ dispatch(Point): void" style="text;align=left;verticalAlign=top;spacingLeft=4;spacingRight=4;overflow=hidden;rotatable=0;points=[[0,0.5],[1,0.5]];portConstraint=eastwest;" parent="O_oIPhdlYZOM3jG4M40S-167" vertex="1"><mxGeometry y="34" width="349" height="26" as="geometry"/></mxCell><mxCell id="O_oIPhdlYZOM3jG4M40S-170" value="events::FieldMakeForest" style="swimlane;fontStyle=0;align=center;verticalAlign=top;childLayout=stackLayout;horizontal=1;startSize=26;horizontalStack=0;resizeParent=1;resizeLast=0;collapsible=1;marginBottom=0;rounded=0;shadow=0;strokeWidth=1;" parent="WIyWlLk6GJQsqaUBKTNV-1" vertex="1"><mxGeometry x="-651" y="831" width="349" height="60" as="geometry"><mxRectangle x="281" width="160" height="26" as="alternateBounds"/></mxGeometry></mxCell><mxCell id="O_oIPhdlYZOM3jG4M40S-171" value="" style="line;html=1;strokeWidth=1;align=left;verticalAlign=middle;spacingTop=-1;spacingLeft=3;spacingRight=3;rotatable=0;labelPosition=right;points=[];portConstraint=eastwest;" parent="O_oIPhdlYZOM3jG4M40S-170" vertex="1"><mxGeometry y="26" width="349" height="8" as="geometry"/></mxCell><mxCell id="O_oIPhdlYZOM3jG4M40S-172" value="+ dispatch(Point): void" style="text;align=left;verticalAlign=top;spacingLeft=4;spacingRight=4;overflow=hidden;rotatable=0;points=[[0,0.5],[1,0.5]];portConstraint=eastwest;" parent="O_oIPhdlYZOM3jG4M40S-170" vertex="1"><mxGeometry y="34" width="349" height="26" as="geometry"/></mxCell><mxCell id="O_oIPhdlYZOM3jG4M40S-173" value="events::CellsImprison" style="swimlane;fontStyle=0;align=center;verticalAlign=top;childLayout=stackLayout;horizontal=1;startSize=26;horizontalStack=0;resizeParent=1;resizeLast=0;collapsible=1;marginBottom=0;rounded=0;shadow=0;strokeWidth=1;" parent="WIyWlLk6GJQsqaUBKTNV-1" vertex="1"><mxGeometry x="-655" y="695" width="349" height="60" as="geometry"><mxRectangle x="281" width="160" height="26" as="alternateBounds"/></mxGeometry></mxCell><mxCell id="O_oIPhdlYZOM3jG4M40S-174" value="" style="line;html=1;strokeWidth=1;align=left;verticalAlign=middle;spacingTop=-1;spacingLeft=3;spacingRight=3;rotatable=0;labelPosition=right;points=[];portConstraint=eastwest;" parent="O_oIPhdlYZOM3jG4M40S-173" vertex="1"><mxGeometry y="26" width="349" height="8" as="geometry"/></mxCell><mxCell id="O_oIPhdlYZOM3jG4M40S-175" value="+ dispatch(Point): void" style="text;align=left;verticalAlign=top;spacingLeft=4;spacingRight=4;overflow=hidden;rotatable=0;points=[[0,0.5],[1,0.5]];portConstraint=eastwest;" parent="O_oIPhdlYZOM3jG4M40S-173" vertex="1"><mxGeometry y="34" width="349" height="26" as="geometry"/></mxCell><mxCell id="O_oIPhdlYZOM3jG4M40S-176" value="" style="edgeStyle=orthogonalEdgeStyle;rounded=0;orthogonalLoop=1;jettySize=auto;html=1;endArrow=block;endFill=0;startSize=14;endSize=14;" parent="WIyWlLk6GJQsqaUBKTNV-1" source="O_oIPhdlYZOM3jG4M40S-167" target="O_oIPhdlYZOM3jG4M40S-139" edge="1"><mxGeometry relative="1" as="geometry"><mxPoint x="-296" y="1109.0526315789475" as="sourcePoint"/><mxPoint x="-156" y="1158" as="targetPoint"/></mxGeometry></mxCell><mxCell id="O_oIPhdlYZOM3jG4M40S-177" value="" style="edgeStyle=orthogonalEdgeStyle;rounded=0;orthogonalLoop=1;jettySize=auto;html=1;endArrow=block;endFill=0;startSize=14;endSize=14;" parent="WIyWlLk6GJQsqaUBKTNV-1" source="O_oIPhdlYZOM3jG4M40S-170" target="O_oIPhdlYZOM3jG4M40S-133" edge="1"><mxGeometry relative="1" as="geometry"><mxPoint x="-296" y="988" as="sourcePoint"/><mxPoint x="-156" y="988" as="targetPoint"/></mxGeometry></mxCell><mxCell id="O_oIPhdlYZOM3jG4M40S-178" value="" style="edgeStyle=orthogonalEdgeStyle;rounded=0;orthogonalLoop=1;jettySize=auto;html=1;endArrow=block;endFill=0;startSize=14;endSize=14;" parent="WIyWlLk6GJQsqaUBKTNV-1" source="O_oIPhdlYZOM3jG4M40S-173" target="O_oIPhdlYZOM3jG4M40S-123" edge="1"><mxGeometry relative="1" as="geometry"><mxPoint x="-286" y="998" as="sourcePoint"/><mxPoint x="-146" y="998" as="targetPoint"/></mxGeometry></mxCell><mxCell id="O_oIPhdlYZOM3jG4M40S-179" value="events::FieldEventFactory" style="swimlane;fontStyle=0;align=center;verticalAlign=top;childLayout=stackLayout;horizontal=1;startSize=26;horizontalStack=0;resizeParent=1;resizeLast=0;collapsible=1;marginBottom=0;rounded=0;shadow=0;strokeWidth=1;" parent="WIyWlLk6GJQsqaUBKTNV-1" vertex="1"><mxGeometry x="-678" y="233" width="349" height="86" as="geometry"><mxRectangle x="281" width="160" height="26" as="alternateBounds"/></mxGeometry></mxCell><mxCell id="O_oIPhdlYZOM3jG4M40S-189" value="# game_mediator_: GameMediator*" style="text;align=left;verticalAlign=top;spacingLeft=4;spacingRight=4;overflow=hidden;rotatable=0;points=[[0,0.5],[1,0.5]];portConstraint=eastwest;" parent="O_oIPhdlYZOM3jG4M40S-179" vertex="1"><mxGeometry y="26" width="349" height="26" as="geometry"/></mxCell><mxCell id="O_oIPhdlYZOM3jG4M40S-183" value="" style="line;html=1;strokeWidth=1;align=left;verticalAlign=middle;spacingTop=-1;spacingLeft=3;spacingRight=3;rotatable=0;labelPosition=right;points=[];portConstraint=eastwest;" parent="O_oIPhdlYZOM3jG4M40S-179" vertex="1"><mxGeometry y="52" width="349" height="8" as="geometry"/></mxCell><mxCell id="O_oIPhdlYZOM3jG4M40S-188" value="+ produce(const std::string&amp;): EventChainLink *" style="text;align=left;verticalAlign=top;spacingLeft=4;spacingRight=4;overflow=hidden;rotatable=0;points=[[0,0.5],[1,0.5]];portConstraint=eastwest;" parent="O_oIPhdlYZOM3jG4M40S-179" vertex="1"><mxGeometry y="60" width="349" height="26" as="geometry"/></mxCell><mxCell id="O_oIPhdlYZOM3jG4M40S-190" value="events::CellsEventFactory" style="swimlane;fontStyle=0;align=center;verticalAlign=top;childLayout=stackLayout;horizontal=1;startSize=26;horizontalStack=0;resizeParent=1;resizeLast=0;collapsible=1;marginBottom=0;rounded=0;shadow=0;strokeWidth=1;" parent="WIyWlLk6GJQsqaUBKTNV-1" vertex="1"><mxGeometry x="-676" y="91" width="349" height="86" as="geometry"><mxRectangle x="281" width="160" height="26" as="alternateBounds"/></mxGeometry></mxCell><mxCell id="O_oIPhdlYZOM3jG4M40S-191" value="# game_mediator_: GameMediator*" style="text;align=left;verticalAlign=top;spacingLeft=4;spacingRight=4;overflow=hidden;rotatable=0;points=[[0,0.5],[1,0.5]];portConstraint=eastwest;" parent="O_oIPhdlYZOM3jG4M40S-190" vertex="1"><mxGeometry y="26" width="349" height="26" as="geometry"/></mxCell><mxCell id="O_oIPhdlYZOM3jG4M40S-192" value="" style="line;html=1;strokeWidth=1;align=left;verticalAlign=middle;spacingTop=-1;spacingLeft=3;spacingRight=3;rotatable=0;labelPosition=right;points=[];portConstraint=eastwest;" parent="O_oIPhdlYZOM3jG4M40S-190" vertex="1"><mxGeometry y="52" width="349" height="8" as="geometry"/></mxCell><mxCell id="O_oIPhdlYZOM3jG4M40S-193" value="+ produce(const std::string&amp;): EventChainLink *" style="text;align=left;verticalAlign=top;spacingLeft=4;spacingRight=4;overflow=hidden;rotatable=0;points=[[0,0.5],[1,0.5]];portConstraint=eastwest;" parent="O_oIPhdlYZOM3jG4M40S-190" vertex="1"><mxGeometry y="60" width="349" height="26" as="geometry"/></mxCell><mxCell id="O_oIPhdlYZOM3jG4M40S-194" value="events::PlayerEventFactory" style="swimlane;fontStyle=0;align=center;verticalAlign=top;childLayout=stackLayout;horizontal=1;startSize=26;horizontalStack=0;resizeParent=1;resizeLast=0;collapsible=1;marginBottom=0;rounded=0;shadow=0;strokeWidth=1;" parent="WIyWlLk6GJQsqaUBKTNV-1" vertex="1"><mxGeometry x="-678" y="522" width="349" height="86" as="geometry"><mxRectangle x="281" width="160" height="26" as="alternateBounds"/></mxGeometry></mxCell><mxCell id="O_oIPhdlYZOM3jG4M40S-195" value="# game_mediator_: GameMediator*" style="text;align=left;verticalAlign=top;spacingLeft=4;spacingRight=4;overflow=hidden;rotatable=0;points=[[0,0.5],[1,0.5]];portConstraint=eastwest;" parent="O_oIPhdlYZOM3jG4M40S-194" vertex="1"><mxGeometry y="26" width="349" height="26" as="geometry"/></mxCell><mxCell id="O_oIPhdlYZOM3jG4M40S-196" value="" style="line;html=1;strokeWidth=1;align=left;verticalAlign=middle;spacingTop=-1;spacingLeft=3;spacingRight=3;rotatable=0;labelPosition=right;points=[];portConstraint=eastwest;" parent="O_oIPhdlYZOM3jG4M40S-194" vertex="1"><mxGeometry y="52" width="349" height="8" as="geometry"/></mxCell><mxCell id="O_oIPhdlYZOM3jG4M40S-197" value="+ produce(const std::string&amp;): EventChainLink *" style="text;align=left;verticalAlign=top;spacingLeft=4;spacingRight=4;overflow=hidden;rotatable=0;points=[[0,0.5],[1,0.5]];portConstraint=eastwest;" parent="O_oIPhdlYZOM3jG4M40S-194" vertex="1"><mxGeometry y="60" width="349" height="26" as="geometry"/></mxCell><mxCell id="O_oIPhdlYZOM3jG4M40S-198" value="events::GameStateEventFactory" style="swimlane;fontStyle=0;align=center;verticalAlign=top;childLayout=stackLayout;horizontal=1;startSize=26;horizontalStack=0;resizeParent=1;resizeLast=0;collapsible=1;marginBottom=0;rounded=0;shadow=0;strokeWidth=1;" parent="WIyWlLk6GJQsqaUBKTNV-1" vertex="1"><mxGeometry x="-676" y="384" width="349" height="86" as="geometry"><mxRectangle x="281" width="160" height="26" as="alternateBounds"/></mxGeometry></mxCell><mxCell id="O_oIPhdlYZOM3jG4M40S-199" value="# game_mediator_: GameMediator*" style="text;align=left;verticalAlign=top;spacingLeft=4;spacingRight=4;overflow=hidden;rotatable=0;points=[[0,0.5],[1,0.5]];portConstraint=eastwest;" parent="O_oIPhdlYZOM3jG4M40S-198" vertex="1"><mxGeometry y="26" width="349" height="26" as="geometry"/></mxCell><mxCell id="O_oIPhdlYZOM3jG4M40S-200" value="" style="line;html=1;strokeWidth=1;align=left;verticalAlign=middle;spacingTop=-1;spacingLeft=3;spacingRight=3;rotatable=0;labelPosition=right;points=[];portConstraint=eastwest;" parent="O_oIPhdlYZOM3jG4M40S-198" vertex="1"><mxGeometry y="52" width="349" height="8" as="geometry"/></mxCell><mxCell id="O_oIPhdlYZOM3jG4M40S-201" value="+ produce(const std::string&amp;): EventChainLink *" style="text;align=left;verticalAlign=top;spacingLeft=4;spacingRight=4;overflow=hidden;rotatable=0;points=[[0,0.5],[1,0.5]];portConstraint=eastwest;" parent="O_oIPhdlYZOM3jG4M40S-198" vertex="1"><mxGeometry y="60" width="349" height="26" as="geometry"/></mxCell><mxCell id="O_oIPhdlYZOM3jG4M40S-202" value="" style="edgeStyle=orthogonalEdgeStyle;rounded=0;orthogonalLoop=1;jettySize=auto;html=1;endArrow=block;endFill=0;startSize=14;endSize=14;dashed=1;" parent="WIyWlLk6GJQsqaUBKTNV-1" source="O_oIPhdlYZOM3jG4M40S-198" target="O_oIPhdlYZOM3jG4M40S-96" edge="1"><mxGeometry relative="1" as="geometry"><mxPoint x="-296" y="733.9999999999998" as="sourcePoint"/><mxPoint x="-156" y="733.9999999999998" as="targetPoint"/><Array as="points"><mxPoint x="-30" y="460"/><mxPoint x="-30" y="492"/></Array></mxGeometry></mxCell><mxCell id="O_oIPhdlYZOM3jG4M40S-203" value="" style="edgeStyle=orthogonalEdgeStyle;rounded=0;orthogonalLoop=1;jettySize=auto;html=1;endArrow=block;endFill=0;startSize=14;endSize=14;dashed=1;" parent="WIyWlLk6GJQsqaUBKTNV-1" source="O_oIPhdlYZOM3jG4M40S-190" target="O_oIPhdlYZOM3jG4M40S-96" edge="1"><mxGeometry relative="1" as="geometry"><mxPoint x="-286" y="743.9999999999998" as="sourcePoint"/><mxPoint x="-146" y="743.9999999999998" as="targetPoint"/><Array as="points"><mxPoint x="-30" y="157"/><mxPoint x="-30" y="492"/></Array></mxGeometry></mxCell><mxCell id="O_oIPhdlYZOM3jG4M40S-205" value="" style="edgeStyle=orthogonalEdgeStyle;rounded=0;orthogonalLoop=1;jettySize=auto;html=1;endArrow=block;endFill=0;startSize=14;endSize=14;dashed=1;" parent="WIyWlLk6GJQsqaUBKTNV-1" source="O_oIPhdlYZOM3jG4M40S-179" target="O_oIPhdlYZOM3jG4M40S-96" edge="1"><mxGeometry relative="1" as="geometry"><mxPoint x="-167" y="403" as="sourcePoint"/><mxPoint x="283.5" y="480.0000000000002" as="targetPoint"/><Array as="points"><mxPoint x="-30" y="303"/><mxPoint x="-30" y="492"/></Array></mxGeometry></mxCell><mxCell id="O_oIPhdlYZOM3jG4M40S-206" value="" style="edgeStyle=orthogonalEdgeStyle;rounded=0;orthogonalLoop=1;jettySize=auto;html=1;endArrow=block;endFill=0;startSize=14;endSize=14;dashed=1;" parent="WIyWlLk6GJQsqaUBKTNV-1" source="O_oIPhdlYZOM3jG4M40S-194" target="O_oIPhdlYZOM3jG4M40S-96" edge="1"><mxGeometry relative="1" as="geometry"><mxPoint x="-157" y="413" as="sourcePoint"/><mxPoint x="293.5" y="490.0000000000002" as="targetPoint"/><Array as="points"><mxPoint x="-30" y="603"/><mxPoint x="-30" y="492"/></Array></mxGeometry></mxCell><mxCell id="O_oIPhdlYZOM3jG4M40S-207" style="edgeStyle=orthogonalEdgeStyle;rounded=0;orthogonalLoop=1;jettySize=auto;html=1;startArrow=none;startFill=0;endArrow=diamondThin;endFill=1;startSize=14;endSize=14;" parent="WIyWlLk6GJQsqaUBKTNV-1" source="O_oIPhdlYZOM3jG4M40S-190" target="O_oIPhdlYZOM3jG4M40S-76" edge="1"><mxGeometry relative="1" as="geometry"><mxPoint x="441.9411764705883" y="467.9999999999998" as="sourcePoint"/><mxPoint x="368.0588235294117" y="329" as="targetPoint"/><Array as="points"><mxPoint x="-70" y="129"/><mxPoint x="-70" y="237"/></Array></mxGeometry></mxCell><mxCell id="O_oIPhdlYZOM3jG4M40S-208" style="edgeStyle=orthogonalEdgeStyle;rounded=0;orthogonalLoop=1;jettySize=auto;html=1;startArrow=none;startFill=0;endArrow=diamondThin;endFill=1;startSize=14;endSize=14;" parent="WIyWlLk6GJQsqaUBKTNV-1" source="O_oIPhdlYZOM3jG4M40S-179" target="O_oIPhdlYZOM3jG4M40S-76" edge="1"><mxGeometry relative="1" as="geometry"><mxPoint x="451.9411764705883" y="477.9999999999998" as="sourcePoint"/><mxPoint x="378.0588235294117" y="339" as="targetPoint"/><Array as="points"><mxPoint x="-69" y="276"/><mxPoint x="-69" y="237"/></Array></mxGeometry></mxCell><mxCell id="O_oIPhdlYZOM3jG4M40S-209" style="edgeStyle=orthogonalEdgeStyle;rounded=0;orthogonalLoop=1;jettySize=auto;html=1;startArrow=none;startFill=0;endArrow=diamondThin;endFill=1;startSize=14;endSize=14;" parent="WIyWlLk6GJQsqaUBKTNV-1" source="O_oIPhdlYZOM3jG4M40S-198" target="O_oIPhdlYZOM3jG4M40S-76" edge="1"><mxGeometry relative="1" as="geometry"><mxPoint x="461.9411764705883" y="487.9999999999998" as="sourcePoint"/><mxPoint x="388.0588235294117" y="349" as="targetPoint"/><Array as="points"><mxPoint x="-70" y="430"/><mxPoint x="-70" y="237"/></Array></mxGeometry></mxCell><mxCell id="O_oIPhdlYZOM3jG4M40S-210" style="edgeStyle=orthogonalEdgeStyle;rounded=0;orthogonalLoop=1;jettySize=auto;html=1;startArrow=none;startFill=0;endArrow=diamondThin;endFill=1;startSize=14;endSize=14;" parent="WIyWlLk6GJQsqaUBKTNV-1" source="O_oIPhdlYZOM3jG4M40S-194" target="O_oIPhdlYZOM3jG4M40S-76" edge="1"><mxGeometry relative="1" as="geometry"><mxPoint x="471.9411764705883" y="497.9999999999998" as="sourcePoint"/><mxPoint x="398.0588235294117" y="359" as="targetPoint"/><Array as="points"><mxPoint x="-70" y="571"/><mxPoint x="-70" y="237"/></Array></mxGeometry></mxCell><mxCell id="O_oIPhdlYZOM3jG4M40S-212" value="" style="edgeStyle=orthogonalEdgeStyle;rounded=0;orthogonalLoop=1;jettySize=auto;html=1;endArrow=openThin;endFill=0;startSize=14;endSize=14;" parent="WIyWlLk6GJQsqaUBKTNV-1" source="O_oIPhdlYZOM3jG4M40S-96" target="O_oIPhdlYZOM3jG4M40S-109" edge="1"><mxGeometry relative="1" as="geometry"><mxPoint x="703" y="1132" as="sourcePoint"/><mxPoint x="451" y="526" as="targetPoint"/><Array as="points"><mxPoint x="451" y="1185"/><mxPoint x="451" y="1185"/></Array></mxGeometry></mxCell><mxCell id="O_oIPhdlYZOM3jG4M40S-213" value="" style="edgeStyle=orthogonalEdgeStyle;rounded=0;orthogonalLoop=1;jettySize=auto;html=1;endArrow=openThin;endFill=0;startSize=14;endSize=14;" parent="WIyWlLk6GJQsqaUBKTNV-1" source="O_oIPhdlYZOM3jG4M40S-194" target="O_oIPhdlYZOM3jG4M40S-164" edge="1"><mxGeometry relative="1" as="geometry"><mxPoint x="-1144" y="891" as="sourcePoint"/><mxPoint x="-1144" y="156" as="targetPoint"/><Array as="points"><mxPoint x="-842" y="565"/><mxPoint x="-842" y="1197"/></Array></mxGeometry></mxCell><mxCell id="O_oIPhdlYZOM3jG4M40S-214" value="" style="edgeStyle=orthogonalEdgeStyle;rounded=0;orthogonalLoop=1;jettySize=auto;html=1;endArrow=openThin;endFill=0;startSize=14;endSize=14;" parent="WIyWlLk6GJQsqaUBKTNV-1" source="O_oIPhdlYZOM3jG4M40S-198" target="O_oIPhdlYZOM3jG4M40S-167" edge="1"><mxGeometry relative="1" as="geometry"><mxPoint x="-719.9999999999995" y="421" as="sourcePoint"/><mxPoint x="-697" y="1053" as="targetPoint"/><Array as="points"><mxPoint x="-908" y="421"/><mxPoint x="-908" y="978"/></Array></mxGeometry></mxCell><mxCell id="O_oIPhdlYZOM3jG4M40S-219" value="" style="edgeStyle=orthogonalEdgeStyle;rounded=0;orthogonalLoop=1;jettySize=auto;html=1;endArrow=openThin;endFill=0;startSize=14;endSize=14;" parent="WIyWlLk6GJQsqaUBKTNV-1" source="O_oIPhdlYZOM3jG4M40S-194" target="O_oIPhdlYZOM3jG4M40S-153" edge="1"><mxGeometry relative="1" as="geometry"><mxPoint x="-721" y="721" as="sourcePoint"/><mxPoint x="-698" y="1353" as="targetPoint"/><Array as="points"><mxPoint x="-841" y="565"/><mxPoint x="-841" y="1104"/></Array></mxGeometry></mxCell><mxCell id="O_oIPhdlYZOM3jG4M40S-220" value="" style="edgeStyle=orthogonalEdgeStyle;rounded=0;orthogonalLoop=1;jettySize=auto;html=1;endArrow=openThin;endFill=0;startSize=14;endSize=14;" parent="WIyWlLk6GJQsqaUBKTNV-1" source="O_oIPhdlYZOM3jG4M40S-179" target="O_oIPhdlYZOM3jG4M40S-170" edge="1"><mxGeometry relative="1" as="geometry"><mxPoint x="-733" y="277.9966666666666" as="sourcePoint"/><mxPoint x="-712" y="834.9300000000001" as="targetPoint"/><Array as="points"><mxPoint x="-978" y="278"/><mxPoint x="-978" y="861"/></Array></mxGeometry></mxCell><mxCell id="O_oIPhdlYZOM3jG4M40S-221" value="" style="edgeStyle=orthogonalEdgeStyle;rounded=0;orthogonalLoop=1;jettySize=auto;html=1;endArrow=openThin;endFill=0;startSize=14;endSize=14;" parent="WIyWlLk6GJQsqaUBKTNV-1" source="O_oIPhdlYZOM3jG4M40S-190" target="O_oIPhdlYZOM3jG4M40S-173" edge="1"><mxGeometry relative="1" as="geometry"><mxPoint x="-720.08" y="141.9966666666666" as="sourcePoint"/><mxPoint x="-699.08" y="698.9300000000001" as="targetPoint"/><Array as="points"><mxPoint x="-1051" y="142"/><mxPoint x="-1051" y="725"/></Array></mxGeometry></mxCell><mxCell id="O_oIPhdlYZOM3jG4M40S-222" value="" style="edgeStyle=orthogonalEdgeStyle;rounded=0;orthogonalLoop=1;jettySize=auto;html=1;dashed=1;endArrow=openThin;endFill=0;startSize=14;endSize=14;" parent="WIyWlLk6GJQsqaUBKTNV-1" source="O_oIPhdlYZOM3jG4M40S-190" target="zkfFHV4jXpPFQw0GAbJ--6" edge="1"><mxGeometry relative="1" as="geometry"><mxPoint x="-346" y="-311" as="sourcePoint"/><mxPoint x="348" y="-613" as="targetPoint"/><Array as="points"><mxPoint x="254" y="104"/><mxPoint x="254" y="104"/></Array></mxGeometry></mxCell><mxCell id="O_oIPhdlYZOM3jG4M40S-223" value="" style="edgeStyle=orthogonalEdgeStyle;rounded=0;orthogonalLoop=1;jettySize=auto;html=1;dashed=1;endArrow=openThin;endFill=0;startSize=14;endSize=14;" parent="WIyWlLk6GJQsqaUBKTNV-1" source="O_oIPhdlYZOM3jG4M40S-179" target="zkfFHV4jXpPFQw0GAbJ--6" edge="1"><mxGeometry relative="1" as="geometry"><mxPoint x="-317" y="114" as="sourcePoint"/><mxPoint x="747.9999999999995" y="114" as="targetPoint"/><Array as="points"><mxPoint x="-241" y="249"/><mxPoint x="-241" y="104"/></Array></mxGeometry></mxCell><mxCell id="O_oIPhdlYZOM3jG4M40S-224" value="" style="edgeStyle=orthogonalEdgeStyle;rounded=0;orthogonalLoop=1;jettySize=auto;html=1;dashed=1;endArrow=openThin;endFill=0;startSize=14;endSize=14;" parent="WIyWlLk6GJQsqaUBKTNV-1" source="O_oIPhdlYZOM3jG4M40S-198" target="zkfFHV4jXpPFQw0GAbJ--6" edge="1"><mxGeometry relative="1" as="geometry"><mxPoint x="-306" y="410" as="sourcePoint"/><mxPoint x="761" y="265.0588235294117" as="targetPoint"/><Array as="points"><mxPoint x="-218" y="410"/><mxPoint x="-218" y="104"/></Array></mxGeometry></mxCell><mxCell id="O_oIPhdlYZOM3jG4M40S-225" value="" style="edgeStyle=orthogonalEdgeStyle;rounded=0;orthogonalLoop=1;jettySize=auto;html=1;dashed=1;endArrow=openThin;endFill=0;startSize=14;endSize=14;" parent="WIyWlLk6GJQsqaUBKTNV-1" source="O_oIPhdlYZOM3jG4M40S-194" target="zkfFHV4jXpPFQw0GAbJ--6" edge="1"><mxGeometry relative="1" as="geometry"><mxPoint x="-323" y="532.94" as="sourcePoint"/><mxPoint x="744" y="387.9988235294117" as="targetPoint"/><Array as="points"><mxPoint x="-194" y="533"/><mxPoint x="-194" y="105"/></Array></mxGeometry></mxCell></root></mxGraphModel></diagram></mxfile>